<svg width="35" height="48" viewBox="0 0 35 48" fill="none" xmlns="http://www.w3.org/2000/svg">
<path d="M35 22.5C35 32.165 27.165 40 17.5 40C7.83502 40 0 32.165 0 22.5C0 12.835 7.83502 5 17.5 5C27.165 5 35 12.835 35 22.5Z" fill="white"/>
<path d="M17.112 35.256C15.3627 35.256 13.784 34.8827 12.376 34.136C10.9893 33.3893 9.89067 32.3227 9.08 30.936C8.29067 29.5493 7.896 27.928 7.896 26.072C7.896 24.2373 8.30133 22.6267 9.112 21.24C9.92267 19.832 11.032 18.7547 12.44 18.008C13.848 17.2613 15.4267 16.888 17.176 16.888C18.9253 16.888 20.504 17.2613 21.912 18.008C23.32 18.7547 24.4293 19.832 25.24 21.24C26.0507 22.6267 26.456 24.2373 26.456 26.072C26.456 27.9067 26.04 29.528 25.208 30.936C24.3973 32.3227 23.2773 33.3893 21.848 34.136C20.44 34.8827 18.8613 35.256 17.112 35.256ZM17.112 30.52C18.1573 30.52 19.0427 30.136 19.768 29.368C20.5147 28.6 20.888 27.5013 20.888 26.072C20.888 24.6427 20.5253 23.544 19.8 22.776C19.096 22.008 18.2213 21.624 17.176 21.624C16.1093 21.624 15.224 22.008 14.52 22.776C13.816 23.5227 13.464 24.6213 13.464 26.072C13.464 27.5013 13.8053 28.6 14.488 29.368C15.192 30.136 16.0667 30.52 17.112 30.52ZM21.336 12.568L13.624 15.8V12.024L21.336 8.312V12.568Z" fill="#FE7A15"/>
</svg>
