<svg width="100" height="100" viewBox="0 0 100 100" fill="none" xmlns="http://www.w3.org/2000/svg">
<rect width="100" height="100" rx="50" fill="white"/>
<path d="M68.0638 42.2257L68.0575 42.2319C68.4258 42.6793 68.6145 43.2477 68.5867 43.8265C68.559 44.4053 68.3169 44.9531 67.9075 45.3632C67.6916 45.5801 67.435 45.7522 67.1523 45.8696C66.8697 45.9871 66.5667 46.0475 66.2606 46.0475C65.9546 46.0475 65.6515 45.9871 65.3689 45.8696C65.0863 45.7522 64.8297 45.5801 64.6138 45.3632C64.2304 44.9814 63.9921 44.4779 63.94 43.9394L62.8125 45.0675L61.9281 44.1838L63.0194 43.0932C62.5131 43.0261 62.0431 42.7936 61.6825 42.4319C61.4656 42.216 61.2935 41.9594 61.1761 41.6767C61.0586 41.3941 60.9982 41.0911 60.9982 40.785C60.9982 40.479 61.0586 40.176 61.1761 39.8933C61.2935 39.6107 61.4656 39.3541 61.6825 39.1382C62.0836 38.7371 62.6173 38.4961 63.1834 38.4605C63.7495 38.4248 64.3092 38.5969 64.7575 38.9444L64.77 38.9319C65.6763 38.0194 67.1513 38.0257 68.0638 38.9319C68.2807 39.1478 68.4528 39.4045 68.5702 39.6871C68.6877 39.9697 68.7481 40.2727 68.7481 40.5788C68.7481 40.8848 68.6877 41.1879 68.5702 41.4705C68.4528 41.7531 68.2807 42.0097 68.0638 42.2257Z" fill="#00D26A"/>
<path d="M52.9013 55.6819L62.745 52.4944C65.5638 51.5819 66.42 48.0131 64.3263 45.9194L61.0763 42.6694C58.9825 40.5756 55.4138 41.4381 54.5013 44.2506L51.3138 54.0944C50.995 55.0756 51.92 56.0006 52.9013 55.6819Z" fill="#FF9B58"/>
<path d="M57.7331 49.1319C58.0394 48.8256 58.0394 48.3319 57.7331 48.0194L54.3706 44.6569L53.8269 46.3319L56.6206 49.1256C56.9269 49.4381 57.4269 49.4381 57.7331 49.1319ZM55.3706 51.9756C55.0644 52.2819 55.0644 52.7756 55.3706 53.0881L56.7269 54.4444L58.4019 53.9006L56.4769 51.9756C56.4043 51.9029 56.3181 51.8451 56.2232 51.8057C56.1283 51.7664 56.0265 51.7461 55.9237 51.7461C55.821 51.7461 55.7192 51.7664 55.6243 51.8057C55.5294 51.8451 55.4432 51.9029 55.3706 51.9756ZM60.1581 48.8631C59.8519 48.5506 59.8519 48.0569 60.1581 47.7506C60.4644 47.4444 60.9581 47.4444 61.2706 47.7569L64.6644 51.1506C64.3519 51.5631 63.9519 51.9131 63.4769 52.1819L60.1581 48.8631Z" fill="#FF6723"/>
<path d="M46.3778 40.8759C46.3778 40.8759 46.3831 40.949 46.3847 41.0824L46.3853 41.1353C46.3854 41.154 46.3863 41.1726 46.3843 41.1963C46.3803 41.2457 46.3762 41.2952 46.372 41.3446C46.3671 41.3978 46.3625 41.4576 46.3556 41.5174C46.3486 41.5762 46.3418 41.6393 46.3325 41.7053C46.289 42.0243 46.2227 42.3398 46.1341 42.6494C46.0322 43.0091 45.8889 43.4092 45.6914 43.8307C45.4947 44.2525 45.2409 44.693 44.9295 45.1337C44.8917 45.1899 44.8502 45.2433 44.8094 45.2982L44.7475 45.3805L44.7164 45.4219L44.7086 45.4323C44.7331 45.4097 44.6706 45.469 44.6759 45.4644L44.6727 45.4688L44.6597 45.4861C44.5907 45.5789 44.518 45.6697 44.4461 45.7632L44.4393 45.7719L44.4297 45.7827L44.4104 45.8044L44.3716 45.8477L44.2926 45.9338L44.1315 46.1067L44.0908 46.15L44.0526 46.1892C44.0271 46.2155 44.0012 46.2415 43.975 46.2672L43.8173 46.423C43.3904 46.8365 42.9057 47.2216 42.3791 47.5635C41.8453 47.9092 41.2795 48.2029 40.6895 48.4406C40.0992 48.6791 39.4876 48.8613 38.863 48.9848C38.2455 49.1061 37.6273 49.1669 37.0305 49.1699C36.4336 49.1732 35.8586 49.1201 35.3243 49.0248C35.057 48.9794 34.8002 48.9175 34.5547 48.8538C34.3098 48.7841 34.0757 48.7139 33.856 48.6303L33.6929 48.5708C33.6393 48.551 33.5873 48.5274 33.5356 48.5062C33.4322 48.4632 33.332 48.42 33.2352 48.3766C33.1388 48.3319 33.0461 48.2853 32.9565 48.2401L32.8245 48.1732C32.7812 48.1513 32.7398 48.1262 32.6986 48.1033C32.5344 48.0097 32.3824 47.9228 32.2475 47.8307C32.112 47.7402 31.9886 47.6586 31.8821 47.575L31.7313 47.458L31.601 47.3519C31.5215 47.2839 31.4559 47.223 31.4031 47.1739C31.2974 47.0757 31.244 47.0196 31.244 47.0196C30.747 46.4974 30.7675 45.6712 31.2897 45.1742C31.499 44.9743 31.7691 44.85 32.0571 44.8211L32.2137 44.8053C32.2137 44.8053 32.2793 44.7986 32.3968 44.7931C32.4555 44.7903 32.5276 44.7866 32.6098 44.7858L32.744 44.7779L32.8932 44.7722C32.9966 44.7712 33.1127 44.7611 33.2349 44.7572C33.3567 44.7547 33.4894 44.7423 33.6267 44.7367C33.7643 44.7307 33.9106 44.7154 34.0602 44.7084C34.2119 44.6921 34.367 44.6851 34.5285 44.6662L34.65 44.6541L34.7112 44.6491L34.7731 44.6415L34.898 44.6262L35.0238 44.6134C35.1085 44.601 35.194 44.589 35.28 44.5793L35.3447 44.5713L35.4098 44.5605L35.5408 44.5414C35.8914 44.4883 36.2526 44.4239 36.6188 44.3453C37.3513 44.1892 38.1039 43.9766 38.838 43.7043C39.2046 43.5679 39.5662 43.4185 39.9222 43.2564C40.2774 43.0957 40.6231 42.9217 40.96 42.7429L41.0846 42.674C41.1053 42.6625 41.1262 42.6512 41.1474 42.6403L41.179 42.6239L41.2061 42.6093L41.314 42.5516L41.3684 42.5232L41.3961 42.5096L41.41 42.5028L41.417 42.4994L41.4263 42.4933C41.5252 42.4291 41.6215 42.3637 41.7195 42.3024L41.7378 42.2908L41.7423 42.2879C41.7503 42.2809 41.6903 42.3378 41.7174 42.3127L41.7248 42.3082L41.7541 42.2901L41.8128 42.2542L41.9295 42.1824C42.2381 41.9901 42.5341 41.7967 42.8083 41.6052C43.0652 41.4262 43.3185 41.2422 43.5683 41.0535C43.7991 40.8805 44.0025 40.7196 44.1748 40.5841C44.2171 40.5499 44.2591 40.5181 44.298 40.4874C44.3363 40.4576 44.3716 40.4321 44.4051 40.4066L44.4985 40.3362C44.5131 40.3267 44.5282 40.3128 44.5423 40.3009L44.5824 40.2665C44.6837 40.1797 44.7422 40.1354 44.7422 40.1354C45.1917 39.7947 45.8324 39.8829 46.1731 40.3325C46.2929 40.4898 46.3641 40.6787 46.3778 40.8759Z" fill="#FFAE2C"/>
<path d="M31.7005 45.9769C31.5406 46.3421 31.399 46.3904 31.0234 46.2259C30.6477 46.0614 30.5872 45.9246 30.7471 45.5594C30.907 45.1942 31.8605 45.6117 31.7005 45.9769Z" fill="#B28E7F"/>
<path d="M47.2036 41.345C47.2036 41.345 47.2211 41.4258 47.2441 41.5746L47.2532 41.6336C47.2563 41.6545 47.2603 41.6752 47.2619 41.702L47.2717 41.8697C47.2746 41.9299 47.2791 41.9975 47.2809 42.0654C47.2823 42.1321 47.2848 42.2037 47.2849 42.2789C47.2869 42.6424 47.263 43.0055 47.2133 43.3655C47.1566 43.7836 47.06 44.2535 46.9064 44.7559C46.7536 45.2584 46.54 45.7911 46.2622 46.3329C46.2289 46.4017 46.1911 46.468 46.1541 46.5358L46.0981 46.6377L46.0699 46.6889L46.0628 46.7018C46.0866 46.6726 46.0262 46.7488 46.0314 46.7428L46.0285 46.7482L46.0167 46.7696C45.9544 46.8843 45.8875 46.9973 45.822 47.1132L45.8159 47.124L45.8069 47.1376L45.7887 47.1648L45.7523 47.2194L45.6777 47.3281L45.5252 47.547L45.4866 47.6018L45.4501 47.6517C45.4259 47.6851 45.401 47.7181 45.3759 47.7511L45.2244 47.9503C44.8132 48.4802 44.3327 48.9875 43.7987 49.4534C43.2571 49.9245 42.6716 50.3426 42.0502 50.702C41.4284 51.0623 40.774 51.3631 40.0957 51.6005C39.425 51.8342 38.7438 52.0003 38.0774 52.0986C37.4109 52.1972 36.76 52.2293 36.1479 52.2077C35.8419 52.1995 35.5451 52.1711 35.2606 52.1389C34.9759 52.1 34.7032 52.0587 34.4444 52.0003L34.2528 51.9598C34.1898 51.9462 34.1278 51.928 34.0666 51.9126C33.9475 51.8819 33.8287 51.8495 33.7105 51.8155C33.5956 51.7809 33.4846 51.7436 33.3773 51.7073L33.2191 51.6536C33.1673 51.6359 33.117 51.6144 33.0673 51.5955C32.9715 51.5581 32.8762 51.5196 32.7813 51.4799C32.6896 51.4439 32.603 51.4015 32.5199 51.3625C32.3541 51.283 32.2033 51.2114 32.071 51.1349C31.9532 51.069 31.8366 51.0011 31.7212 50.9312C31.6372 50.8764 31.5541 50.8203 31.4719 50.7628C31.3382 50.6699 31.2696 50.6157 31.2696 50.6157C30.6313 50.1112 30.5228 49.1847 31.0273 48.5463C31.2295 48.2897 31.5115 48.1079 31.8287 48.0298L32.0011 47.9872C32.0011 47.9872 32.0734 47.9693 32.2038 47.9445C32.269 47.9321 32.3489 47.9166 32.4409 47.9016C32.5338 47.8828 32.6392 47.8626 32.7552 47.8423C32.8706 47.8247 32.9987 47.795 33.1346 47.7711C33.2703 47.749 33.4166 47.714 33.5692 47.686C33.722 47.6573 33.883 47.6171 34.0491 47.5855C34.1336 47.5645 34.2184 47.5449 34.3034 47.5265C34.3895 47.5084 34.477 47.4854 34.5657 47.4638L34.6996 47.431L34.7671 47.4157L34.8351 47.3973L34.9721 47.3604L35.1107 47.3261L35.2504 47.2854C35.3211 47.2663 35.3918 47.2471 35.4625 47.228L35.5336 47.2056C35.5811 47.1909 35.629 47.1775 35.6769 47.1634C36.0602 47.0484 36.4536 46.919 36.8503 46.7729C37.644 46.482 38.4511 46.1248 39.2281 45.7038C39.6161 45.4931 39.9964 45.2687 40.3684 45.031C40.7397 44.7949 41.0984 44.5456 41.4464 44.2921L41.5747 44.1953C41.596 44.1791 41.6176 44.1632 41.6395 44.1477L41.6722 44.1243L41.7001 44.1037L41.8116 44.0221L41.8678 43.9817L41.8967 43.9621L41.9111 43.9523L41.9184 43.9473L41.9278 43.9391C42.0281 43.8515 42.1253 43.7632 42.2251 43.6791L42.2437 43.6632L42.2483 43.6593C42.2561 43.6502 42.1981 43.7232 42.2244 43.6909L42.2319 43.6847L42.2618 43.6599L42.3217 43.6104L42.4407 43.5117C42.7548 43.2477 43.055 42.9846 43.3309 42.727C43.5894 42.4861 43.8433 42.2403 44.0924 41.9898C44.3227 41.7597 44.5245 41.5477 44.6954 41.3689C44.7372 41.3239 44.7792 41.2816 44.8177 41.2412C44.8558 41.2018 44.8912 41.1677 44.9246 41.1339L45.0177 41.0404C45.0325 41.0274 45.0472 41.0095 45.061 40.9939L45.1004 40.9491C45.1998 40.836 45.2581 40.7772 45.2581 40.7772C45.7062 40.325 46.4362 40.3218 46.8884 40.7699C47.0473 40.9268 47.1568 41.1267 47.2036 41.345Z" fill="#FFB93E"/>
<path d="M31.6141 49.3781C31.4935 49.8115 30.3617 49.4966 30.4823 49.0631C30.603 48.6297 30.7535 48.5532 31.1995 48.6773C31.6454 48.8014 31.7347 48.9446 31.6141 49.3781Z" fill="#A07562"/>
<path d="M46.5569 37.7617C46.5117 37.7493 46.4644 37.7463 46.418 37.7528C46.3698 37.7115 46.3158 37.6775 46.2577 37.652C46.0243 37.5497 45.7705 37.7754 45.6414 37.9169C45.2484 38.3474 46.1327 38.912 45.5043 39.9517C45.4158 40.0981 45.4913 40.4754 45.6264 40.5346C45.7789 40.6014 45.9586 40.5528 46.0921 40.4233C46.0882 40.4326 46.0846 40.4418 46.0807 40.4511C46.005 40.6289 46.1494 41.0385 46.3098 41.0831C46.548 41.1494 46.8075 40.9852 46.9128 40.7041C47.209 39.9136 47.5254 38.0313 46.5569 37.7617Z" fill="#8E6049"/>
<path d="M48.6067 40.7704C48.6067 40.7704 48.647 40.8399 48.7134 40.971L48.7397 41.023C48.7489 41.0415 48.7587 41.059 48.7687 41.0848L48.8305 41.2437C48.8521 41.3008 48.8774 41.3648 48.9004 41.4294C48.9226 41.4926 48.9472 41.5601 48.971 41.6319C49.087 41.9784 49.1794 42.3323 49.2476 42.6912C49.3277 43.1081 49.3882 43.5869 49.4071 44.1149C49.4268 44.6429 49.4005 45.2192 49.3187 45.8256C49.3101 45.9018 49.2966 45.9774 49.2843 46.054L49.2655 46.1692L49.2559 46.2272L49.2535 46.2417C49.2657 46.204 49.2355 46.3014 49.2383 46.2934L49.2373 46.2994L49.2332 46.3233C49.2123 46.4514 49.1869 46.5796 49.1636 46.71L49.1614 46.7222L49.1575 46.7382L49.1496 46.7702L49.1336 46.8344C49.1224 46.8772 49.1112 46.9201 49.1 46.9629L49.0304 47.2222L49.0126 47.2873L48.995 47.3467C48.9833 47.3866 48.9711 47.4263 48.9586 47.4658L48.8833 47.7054C48.6737 48.3445 48.3966 48.9874 48.0554 49.6096C47.7091 50.2388 47.3048 50.8343 46.8478 51.3883C46.3896 51.9459 45.8778 52.4589 45.3341 52.9138C44.7905 53.3689 44.2148 53.766 43.6291 54.0951C43.0436 54.4247 42.45 54.6881 41.8737 54.8891C41.5865 54.9919 41.3008 55.073 41.0252 55.1466C40.747 55.2138 40.4793 55.275 40.2182 55.3156L40.0259 55.3481C39.9625 55.3587 39.8986 55.3646 39.8363 55.3728C39.7114 55.3883 39.5896 55.4021 39.4711 55.4138C39.3521 55.424 39.2357 55.4305 39.1232 55.4366L38.9571 55.4454C38.9028 55.4483 38.8484 55.4471 38.7955 55.448C38.5832 55.4489 38.3867 55.4499 38.2038 55.4365C38.0213 55.425 37.8555 55.4156 37.7051 55.3949L37.4929 55.367L37.3067 55.3385C37.1912 55.3178 37.0934 55.2965 37.0145 55.2793C36.8567 55.2449 36.7734 55.2218 36.7734 55.2218C35.9976 55.0066 35.5431 54.2032 35.7583 53.4274C35.8517 53.089 36.0645 52.7958 36.3573 52.6021L36.5012 52.5071C36.5012 52.5071 36.5623 52.4667 36.6754 52.3999C36.7318 52.3665 36.801 52.3253 36.8819 52.2811L37.0102 52.2028L37.1546 52.1184C37.2565 52.0626 37.3659 51.991 37.4847 51.9219C37.604 51.8545 37.7286 51.7712 37.8618 51.6919C37.9948 51.612 38.1314 51.518 38.276 51.4299C38.4174 51.3316 38.5674 51.2403 38.7171 51.1333L38.8309 51.0549L38.8887 51.0164L38.9459 50.9748L39.0611 50.8912L39.1787 50.8092L39.2951 50.7208L39.4136 50.6339L39.4732 50.5902L39.5318 50.5435L39.6507 50.4518C39.968 50.2045 40.2889 49.9385 40.6054 49.6543C40.9218 49.3702 41.2353 49.0697 41.5377 48.7527C41.8404 48.4358 42.1317 48.1025 42.4098 47.7591C42.9644 47.0708 43.4616 46.3386 43.8884 45.6057L43.9666 45.4679C43.9795 45.445 43.9927 45.4221 44.0064 45.3996L44.0268 45.3656L44.0435 45.3362L44.1108 45.2198L44.1451 45.1619L44.163 45.1332L44.172 45.1189L44.1764 45.1117L44.1818 45.1004C44.2391 44.981 44.2936 44.8622 44.3515 44.7461L44.3623 44.7243L44.365 44.7189C44.369 44.7071 44.34 44.8007 44.3532 44.7591L44.3575 44.7506L44.3746 44.7166L44.4088 44.6487L44.4766 44.5137C44.6539 44.1543 44.8177 43.8028 44.961 43.4668C45.0949 43.1538 45.2226 42.8382 45.344 42.5202C45.4564 42.2288 45.5502 41.9653 45.6297 41.7436C45.6487 41.6882 45.6688 41.6353 45.6867 41.5854C45.7045 41.5367 45.7218 41.4947 45.7376 41.4531L45.7823 41.3384C45.79 41.3223 45.7959 41.3001 45.8018 41.2806L45.8187 41.2249C45.8613 41.0842 45.8888 41.0088 45.8888 41.0088C46.1742 40.2275 47.039 39.8255 47.8203 40.1109C48.1646 40.2365 48.4361 40.4764 48.6067 40.7704Z" fill="#FFCE6C"/>
<path d="M48.3395 44.5644C48.3395 44.5644 48.3637 44.677 48.3882 44.8718C48.3914 44.8962 48.3949 44.9218 48.3977 44.9487L48.4022 44.9899L48.4043 45.0359C48.4076 45.0988 48.408 45.1668 48.4098 45.2402C48.4107 45.3132 48.411 45.3927 48.4089 45.474L48.3923 45.7255C48.3811 45.9019 48.3507 46.0893 48.3164 46.2886C48.3088 46.3388 48.2969 46.3883 48.2854 46.4386L48.249 46.5912C48.2235 46.6939 48.1988 46.7998 48.1636 46.9037C48.13 47.0102 48.0952 47.1162 48.059 47.2219C48.019 47.3275 47.9754 47.4331 47.9317 47.5399C47.9087 47.5927 47.8885 47.6473 47.8627 47.6991L47.7866 47.8559L47.7086 48.0126C47.6832 48.0654 47.6546 48.1162 47.6252 48.1667C47.5676 48.268 47.509 48.3688 47.4494 48.469C47.3868 48.566 47.323 48.6621 47.2578 48.7575C47.1952 48.8535 47.1256 48.9434 47.0571 49.0322C46.9877 49.1203 46.922 49.2093 46.85 49.2909C46.7064 49.4546 46.5675 49.6117 46.4223 49.748L46.3164 49.8499C46.2814 49.883 46.2478 49.9163 46.2118 49.9464C46.1401 50.0068 46.0729 50.0665 46.0052 50.1207C45.8735 50.2325 45.7431 50.3241 45.6277 50.4042C45.5696 50.4439 45.5161 50.4816 45.4649 50.5143C45.4172 50.5436 45.369 50.5721 45.3205 50.6C45.2528 50.6394 45.1841 50.6773 45.1145 50.7135C45.0663 50.7385 45.0399 50.7509 45.0399 50.7509C44.9796 50.7795 44.9119 50.7882 44.8463 50.776C44.7807 50.7637 44.7207 50.7311 44.6748 50.6827C44.6289 50.6343 44.5994 50.5727 44.5906 50.5066C44.5818 50.4404 44.5941 50.3732 44.6258 50.3145L44.6313 50.3046L44.6697 50.2343C44.6953 50.1891 44.733 50.1234 44.7832 50.0432C44.8078 50.0026 44.8361 49.9589 44.8667 49.9115C44.8954 49.8622 44.9279 49.8106 44.9619 49.7551C45.0303 49.6446 45.1113 49.5248 45.1926 49.3896C45.2333 49.3221 45.2789 49.2551 45.3242 49.1843C45.3683 49.1126 45.4128 49.038 45.4602 48.9632C45.5572 48.815 45.6498 48.6532 45.7517 48.4917C45.7781 48.4519 45.8017 48.4098 45.8258 48.3678L45.9002 48.242L45.9766 48.1159C46.0026 48.0739 46.0254 48.0297 46.0504 47.9868C46.0989 47.8999 46.1504 47.8141 46.2005 47.7271C46.2479 47.6385 46.2962 47.5504 46.3455 47.4629C46.3966 47.3761 46.4394 47.2854 46.487 47.1974C46.5335 47.109 46.5829 47.0222 46.6248 46.9329C46.6686 46.8453 46.7133 46.7582 46.7587 46.6714C46.799 46.5846 46.8404 46.4984 46.8831 46.4129C46.927 46.3288 46.9632 46.2437 47.0018 46.1612L47.0597 46.0387C47.0796 45.9992 47.0981 45.9591 47.1153 45.9184C47.1491 45.8405 47.1839 45.7629 47.2195 45.6858C47.2572 45.6113 47.2852 45.537 47.3155 45.4662L47.406 45.2624C47.4348 45.1984 47.4571 45.1386 47.4827 45.0815C47.5082 45.0246 47.5307 44.9707 47.5544 44.9209L47.5715 44.884L47.5862 44.8453C47.5956 44.82 47.6054 44.796 47.6146 44.7732C47.6873 44.5908 47.7391 44.4879 47.7391 44.4879C47.7773 44.4119 47.8442 44.3541 47.925 44.3274C48.0058 44.3007 48.0939 44.3071 48.1699 44.3453C48.2596 44.3903 48.3193 44.4734 48.3395 44.5644Z" fill="#FFDF95"/>
<path d="M36.6452 53.9434C36.69 54.3911 36.5775 54.517 36.117 54.5632C35.6564 54.6094 35.5211 54.5083 35.4763 54.0606C35.4314 53.6129 35.5439 53.487 36.0045 53.4409C36.465 53.3947 36.6003 53.4957 36.6452 53.9434Z" fill="#8E6049"/>
<path d="M47.3293 40.8813C47.5753 40.8567 47.7575 40.6095 47.7536 40.3093C47.7428 39.4652 48.392 38.1545 47.497 37.6967C46.4374 37.1547 45.6044 37.8992 45.5557 38.1099C45.4075 38.7508 46.5381 38.8542 46.8947 40.647C46.9324 40.8365 47.1636 40.8979 47.3293 40.8813Z" fill="#966C5A"/>
<path d="M47.2035 38.9702C46.9188 39.4319 47.2038 40.894 47.3293 40.8814C47.5754 40.8567 48.2308 37.3042 47.2035 38.9702Z" fill="#18937E"/>
<path d="M67.3831 34.4844C66.8206 35.0531 66.4706 35.8031 66.4019 36.5969C66.2644 38.1844 65.5706 39.6781 64.4456 40.8031C61.8456 43.3969 57.6206 43.3969 55.0269 40.8031L53.0581 38.8344L54.0581 37.8406C53.8144 35.8719 54.4456 33.8094 55.9519 32.3031C57.0769 31.1781 58.5706 30.4844 60.1581 30.3469C60.2072 30.3425 60.2562 30.3371 60.305 30.3306C60.1873 29.9473 60.1765 29.5392 60.2736 29.1502C60.3708 28.7612 60.5722 28.4061 60.8563 28.1231C61.2531 27.7273 61.785 27.4964 62.3451 27.4767C62.9052 27.457 63.452 27.6499 63.8756 28.0169L65.5269 26.3656L67.4956 28.3344C69.1581 29.9969 69.1581 32.7094 67.4956 34.3719L67.3831 34.4844Z" fill="#FFAA9A"/>
<path fill-rule="evenodd" clip-rule="evenodd" d="M65.545 32.6469C64.9825 33.2156 64.6325 33.9656 64.5638 34.7594C64.4275 36.3487 63.7373 37.8396 62.6138 38.9719C60.0138 41.5656 55.7888 41.5719 53.195 38.9719C50.6013 36.3719 50.6013 32.1469 53.195 29.5531C54.32 28.4281 55.8138 27.7344 57.395 27.5906C58.1923 27.5209 58.9399 27.1737 59.5075 26.6094L59.62 26.4969C61.2825 24.8344 63.995 24.8344 65.6575 26.4969C67.32 28.1594 67.32 30.8719 65.6575 32.5344L65.545 32.6469ZM61.6638 28.9281C61.245 29.3469 61.245 30.0219 61.6638 30.4406C62.0825 30.8594 62.7638 30.8594 63.1825 30.4469C63.6013 30.0281 63.6013 29.3469 63.1825 28.9281C62.981 28.727 62.7079 28.614 62.4231 28.614C62.1384 28.614 61.8653 28.727 61.6638 28.9281Z" fill="#F4F4F4"/>
<path d="M54.7975 29.4963C54.3875 29.8213 54.4494 30.4825 54.9388 30.7094L58.0138 32.1657C58.0175 32.1657 58.02 32.1675 58.0238 32.1688C58.0269 32.17 58.03 32.1719 58.0325 32.1719C58.6388 32.4532 59.3513 32.3469 59.8263 31.8719L60.2888 31.4094C60.5825 31.1157 60.695 30.6844 60.5763 30.2907C60.4742 29.9519 60.4656 29.5918 60.5514 29.2485C60.6372 28.9052 60.8143 28.5916 61.0638 28.3407C61.252 28.1515 61.4773 28.0031 61.7254 27.9047C61.9735 27.8063 62.2393 27.7601 62.506 27.7689C62.7728 27.7777 63.0349 27.8413 63.276 27.9558C63.5171 28.0703 63.7321 28.2332 63.9075 28.4344C64.5513 29.1594 64.5513 30.2719 63.9075 31.0032C63.3763 31.6032 62.5763 31.7969 61.8763 31.5844C61.6809 31.524 61.4728 31.5183 61.2745 31.5679C61.0761 31.6175 60.8952 31.7205 60.7513 31.8657L60.295 32.3219C59.82 32.7969 59.7138 33.5157 60.0013 34.1219C60.0013 34.125 60.0031 34.1269 60.005 34.1282C60.0063 34.13 60.0081 34.1313 60.0081 34.1344L61.4706 37.2032C61.5218 37.3114 61.5992 37.4051 61.6959 37.4758C61.7925 37.5464 61.9053 37.5918 62.024 37.6077C62.1427 37.6236 62.2634 37.6096 62.3753 37.5668C62.4871 37.5241 62.5865 37.4541 62.6644 37.3632C63.1922 36.559 63.5122 35.6364 63.5956 34.6782C63.6831 33.6532 64.1331 32.6907 64.8581 31.9594L64.9706 31.8469C65.2827 31.5356 65.529 31.1647 65.6948 30.7562C65.8606 30.3478 65.9425 29.9102 65.9356 29.4694C65.9293 29.0011 65.8227 28.5397 65.6232 28.116C65.4236 27.6924 65.1357 27.3163 64.7788 27.0132C63.4763 25.9057 61.5113 26.0019 60.285 27.2194L60.2019 27.3032C59.4731 28.0317 58.51 28.4789 57.4831 28.5657C56.5247 28.6488 55.6019 28.9686 54.7975 29.4963Z" fill="url(#paint0_linear_13_35)"/>
<path d="M53.0925 31.2287C53.2913 30.935 53.6731 30.8319 53.995 30.9781L57.7513 32.7406C58.4825 33.0844 59.0763 33.6781 59.4263 34.4031L61.2075 38.1406C61.3638 38.4719 61.245 38.8656 60.9388 39.0594C60.3613 39.4267 59.722 39.6861 59.0519 39.825C58.1296 40.0159 57.1744 39.9745 56.2721 39.7045C55.3698 39.4345 54.5489 38.9443 53.8831 38.2781C51.9694 36.365 51.7063 33.4244 53.0925 31.2281V31.2287Z" fill="url(#paint1_linear_13_35)"/>
<path d="M49.9156 35.5875C49.8344 35.3031 49.6828 35.0703 49.5453 34.8563C49.4578 34.7234 49.3609 34.5703 49.3063 34.4219C49.2469 34.2531 49.1672 34.1047 49.0906 33.9625C49.0188 33.8297 48.9516 33.7063 48.9188 33.5906C48.8578 33.3859 48.8938 33.1313 48.9344 32.8625C48.9469 32.7828 48.9578 32.7047 48.9672 32.6266C49.0063 32.3109 49.0641 31.9984 49.1406 31.6969C49.1516 31.6594 49.1688 31.6016 49.1906 31.5297C49.4406 30.7172 49.5172 30.3078 49.3078 30.0266C49.2109 29.8938 49.0578 29.8188 48.8922 29.8188C48.6547 29.8188 48.45 29.9766 48.2969 30.1141C48.1609 30.2359 48.0578 30.3766 47.9672 30.5016L47.8953 30.6016C47.7484 30.7969 47.6 30.9891 47.45 31.1813C47.2516 31.4391 47.0516 31.6984 46.8547 31.9625C46.8078 32.0234 46.7609 32.0969 46.7078 32.175C46.6297 32.2969 46.4438 32.5813 46.3438 32.6047C46.2844 32.6047 46.1688 32.5484 46.075 32.5031L46.0047 32.4703C45.4656 32.2141 44.8828 31.9422 44.2766 31.6906C44.1344 31.3984 43.9156 31.1359 43.7594 30.8547C43.5578 30.4891 43.3609 29.8047 42.8328 29.9234C42.4484 30.0109 42.0578 30.4844 41.7797 30.7422C41.7422 30.7766 41.7078 30.8078 41.6781 30.8375C40.525 30.5234 39.3734 30.2781 38.1891 30.2141C38.0984 29.9313 38.1109 29.6 38.1391 29.2969C38.1719 28.9438 38.2594 28.4766 37.7406 28.6328C37.4016 28.7344 37.1016 29.0313 36.8234 29.2422C36.3891 29.5734 36.0266 29.9656 35.6781 30.3844C35.3125 30.4563 34.9547 30.5453 34.6109 30.6594C33.3953 31.0625 32.3328 31.7203 31.4516 32.6172C31.1938 32.8813 30.9531 33.1641 30.7359 33.4547C30.6219 33.6063 30.5109 33.7641 30.4063 33.9313L30.3391 34.0328C30.25 34.1672 30.15 34.3188 30.0828 34.5172C29.9484 34.9141 30.1953 35.1797 30.3125 35.3078L30.3813 35.3703C30.3828 35.4063 30.3813 35.4328 30.3797 35.4563C30.3734 35.6 30.3766 35.7469 30.5203 35.9688C30.9656 36.6516 31.7453 37.075 32.3156 37.3844L32.4313 37.4484C33.0625 37.7938 33.7406 38.0563 34.5016 38.2563C34.9172 38.3641 35.3328 38.4531 35.7453 38.525C35.8688 38.6219 35.9891 38.7031 36.0188 38.7219C36.4938 39.0406 37.1016 39.3875 37.6922 39.3875C38.1484 39.3875 37.7891 38.9297 37.6625 38.7625C37.6516 38.7484 37.6422 38.7328 37.6297 38.7172C37.7797 38.7219 37.9344 38.7344 38.0797 38.7344C38.4359 38.7344 38.7875 38.7188 39.1281 38.6891C40.1031 38.6031 41.1172 38.3547 42.1422 37.9516C42.1688 37.9406 42.1938 37.9297 42.2188 37.9188C42.2594 37.925 42.3 37.9313 42.3266 37.9359C42.675 37.9984 43.0328 38.1406 43.3906 38.1156C43.8875 38.0797 43.8969 37.8313 44.0641 37.4359C44.1438 37.2547 44.1922 37.0672 44.2672 36.8859C44.2766 36.8641 44.2875 36.8375 44.2984 36.8141C44.7547 36.5125 45.2141 36.1719 45.6813 35.7859C45.8391 35.6578 46.0094 35.5438 46.1906 35.4234C46.3734 35.3 46.5641 35.1734 46.7781 35.0172C46.9531 35.0172 47.2797 35.2563 47.4359 35.3703L47.6125 35.4984C47.9234 35.725 48.2453 35.9594 48.6078 36.1453C48.7719 36.2297 49.0844 36.3719 49.3484 36.3719C49.6172 36.3719 49.7609 36.2328 49.8234 36.1516C49.9156 36.05 49.9938 35.8656 49.9156 35.5875Z" fill="#006CA2"/>
<path d="M45.7297 34.7156C45.5375 34.8422 45.3422 34.9734 45.1516 35.1297C44.0125 36.0656 42.9297 36.7313 41.8406 37.1594C40.8922 37.5328 39.9578 37.7625 39.0625 37.8406C38.4797 37.8938 37.8641 37.8969 37.2312 37.8531C36.5078 37.8016 35.7656 37.6828 35.0187 37.5047C35.1141 37.2938 35.1922 37.0734 35.2516 36.85C35.3234 36.5828 35.3484 36.2344 35.3234 35.9313C35.4344 35.9688 35.5422 36.0031 35.6531 36.0438C36.0031 36.1734 36.3594 36.2578 36.7141 36.2609C36.9797 36.2609 37.1703 36.0109 37.3781 35.7734C37.6047 35.5125 37.8437 35.2563 37.8906 34.7219C37.9031 34.5953 37.9453 34.4187 37.8875 34.3266C37.8203 34.2156 37.6672 34.2344 37.5828 34.2109C37.4703 34.1828 37.3609 34.1703 37.2516 34.1562C36.9328 34.1156 36.6359 34.1391 36.3219 34.2078C35.9656 34.2844 35.6016 34.3891 35.2562 34.5594C35.2109 34.5813 35.1672 34.6094 35.1219 34.6359C35.0531 34.3391 34.9406 34.05 34.8344 33.7656C34.7516 33.5438 34.6969 33.3203 34.5016 33.1641C34.3969 33.0797 34.1297 33.0031 34.0797 33.1859C34.0594 33.2625 34.1062 33.3734 34.1625 33.4781C34.2078 33.5625 34.2562 33.6422 34.2766 33.7C34.4203 34.1188 34.4875 34.5594 34.5531 34.9938C34.6328 35.5109 34.6531 35.9469 34.6172 36.4719C34.6 36.7203 34.5312 36.9594 34.4469 37.1687C34.4234 37.225 34.3969 37.2797 34.3672 37.3328C33.8172 37.1656 33.3156 36.9609 32.8469 36.7047L32.7297 36.6406C32.2203 36.3641 31.5859 36.0188 31.2391 35.5016C31.2422 35.4609 31.2438 35.4125 31.2406 35.3516C31.3516 35.1875 31.6328 35.2484 31.7844 35.3016C31.9797 35.3703 32.1656 35.5016 32.3719 35.4828C32.5703 35.4656 32.6437 35.2656 32.5359 35.1063C32.4328 34.95 32.1812 34.8766 32.0203 34.7969C31.8359 34.7047 31.6172 34.6641 31.4187 34.6078C31.2937 34.5719 31.1625 34.5578 31.0312 34.5547C31.0406 34.5406 31.0469 34.5281 31.0563 34.5141C31.0828 34.4734 31.1109 34.4328 31.1344 34.3922C31.225 34.2469 31.325 34.1078 31.4234 33.9734C31.6187 33.7125 31.8328 33.4609 32.0656 33.2234C32.2516 33.0344 32.4484 32.8563 32.6516 32.6922C32.7859 32.5922 33.1156 32.4062 33.6094 32.4984C34.1328 32.5969 34.4422 32.8484 35.3641 32.7031C36.2875 32.5578 36.3953 32.125 37.2953 32.125C38.1953 32.125 38.5109 32.8281 39.6125 32.8813C40.5937 32.9266 40.6828 32.3422 41.625 32.4828C42.5672 32.6219 42.6562 33.5297 43.9266 33.5297C45.1969 33.5297 45.3766 33.0766 46.7047 34.0437C46.7 34.0875 46.6891 34.1328 46.6766 34.1797C46.5078 34.2 46.3516 34.2625 46.2203 34.3688C46.0703 34.4875 45.9047 34.5984 45.7297 34.7156V34.7156Z" fill="#40C0E7"/>
<mask id="mask0_13_35" style="mask-type:luminance" maskUnits="userSpaceOnUse" x="31" y="32" width="16" height="6">
<path d="M45.7297 34.7156C45.5375 34.8422 45.3422 34.9734 45.1516 35.1297C44.0125 36.0656 42.9297 36.7313 41.8406 37.1594C40.8922 37.5328 39.9578 37.7625 39.0625 37.8406C38.4797 37.8938 37.8641 37.8969 37.2312 37.8531C36.5078 37.8016 35.7656 37.6828 35.0187 37.5047C35.1141 37.2938 35.1922 37.0734 35.2516 36.85C35.3234 36.5828 35.3484 36.2344 35.3234 35.9313C35.4344 35.9688 35.5422 36.0031 35.6531 36.0438C36.0031 36.1734 36.3594 36.2578 36.7141 36.2609C36.9797 36.2609 37.1703 36.0109 37.3781 35.7734C37.6047 35.5125 37.8437 35.2563 37.8906 34.7219C37.9031 34.5953 37.9453 34.4187 37.8875 34.3266C37.8203 34.2156 37.6672 34.2344 37.5828 34.2109C37.4703 34.1828 37.3609 34.1703 37.2516 34.1562C36.9328 34.1156 36.6359 34.1391 36.3219 34.2078C35.9656 34.2844 35.6016 34.3891 35.2562 34.5594C35.2109 34.5813 35.1672 34.6094 35.1219 34.6359C35.0531 34.3391 34.9406 34.05 34.8344 33.7656C34.7516 33.5438 34.6969 33.3203 34.5016 33.1641C34.3969 33.0797 34.1297 33.0031 34.0797 33.1859C34.0594 33.2625 34.1062 33.3734 34.1625 33.4781C34.2078 33.5625 34.2562 33.6422 34.2766 33.7C34.4203 34.1188 34.4875 34.5594 34.5531 34.9938C34.6328 35.5109 34.6531 35.9469 34.6172 36.4719C34.6 36.7203 34.5312 36.9594 34.4469 37.1687C34.4234 37.225 34.3969 37.2797 34.3672 37.3328C33.8172 37.1656 33.3156 36.9609 32.8469 36.7047L32.7297 36.6406C32.2203 36.3641 31.5859 36.0188 31.2391 35.5016C31.2422 35.4609 31.2438 35.4125 31.2406 35.3516C31.3516 35.1875 31.6328 35.2484 31.7844 35.3016C31.9797 35.3703 32.1656 35.5016 32.3719 35.4828C32.5703 35.4656 32.6437 35.2656 32.5359 35.1063C32.4328 34.95 32.1812 34.8766 32.0203 34.7969C31.8359 34.7047 31.6172 34.6641 31.4187 34.6078C31.2937 34.5719 31.1625 34.5578 31.0312 34.5547C31.0406 34.5406 31.0469 34.5281 31.0563 34.5141C31.0828 34.4734 31.1109 34.4328 31.1344 34.3922C31.225 34.2469 31.325 34.1078 31.4234 33.9734C31.6187 33.7125 31.8328 33.4609 32.0656 33.2234C32.2516 33.0344 32.4484 32.8563 32.6516 32.6922C32.7859 32.5922 33.1156 32.4062 33.6094 32.4984C34.1328 32.5969 34.4422 32.8484 35.3641 32.7031C36.2875 32.5578 36.3953 32.125 37.2953 32.125C38.1953 32.125 38.5109 32.8281 39.6125 32.8813C40.5937 32.9266 40.6828 32.3422 41.625 32.4828C42.5672 32.6219 42.6562 33.5297 43.9266 33.5297C45.1969 33.5297 45.3766 33.0766 46.7047 34.0437C46.7 34.0875 46.6891 34.1328 46.6766 34.1797C46.5078 34.2 46.3516 34.2625 46.2203 34.3688C46.0703 34.4875 45.9047 34.5984 45.7297 34.7156V34.7156Z" fill="white"/>
</mask>
<g mask="url(#mask0_13_35)">
<path d="M30.8313 34.8672C30.8313 34.8672 33.7797 35.8266 38.9875 35.7172C43.3938 35.625 47.4719 33.6656 47.4719 33.6656L47.3266 34.4672L46.4922 34.6985C46.4922 34.6985 43.075 38.1735 39.1031 38.2688C37.6859 38.3016 35.6328 38.1438 34.3641 37.7453C32.0719 37.0203 30.9547 35.8297 30.9547 35.8297L30.8313 34.8672Z" fill="white"/>
</g>
<path d="M32.7031 33.525C32.4141 33.5406 32.1875 33.8188 32.2031 34.1422C32.2187 34.4672 32.4656 34.7156 32.7547 34.7C33.0469 34.6828 33.2734 34.4078 33.2578 34.0828C33.2406 33.7594 32.9937 33.5078 32.7031 33.525Z" fill="#2F2F2F"/>
<path d="M31.5156 55.1562H37.375V58.125H31.5156C30.7344 58.125 30.0313 58.75 30.0313 59.6094C30.0313 60.4687 30.6563 61.0938 31.5156 61.0938H68.0781C68.8594 61.0938 69.5625 61.7187 69.5625 62.5781C69.5625 63.3594 68.9375 64.0625 68.0781 64.0625H31.4375C29.0156 64.0625 27.0625 62.1094 27.0625 59.6875C27.0625 57.1094 29.0938 55.1562 31.5156 55.1562ZM30.4219 45.0781L33.3125 44.8437C33.3125 44.7656 31.5156 34.0625 31.125 31.875C30.8906 30.625 30.4219 27.1094 25.9688 27.1094V30.0781C27.7656 30.0781 28 30.7813 28.1562 32.1094C28.625 34.2969 30.4219 44.9219 30.4219 45.0781Z" fill="#B2C1C0"/>
<path d="M30.2656 34.6094H69.875C71.3594 34.6094 71.5937 36.0156 71.3594 36.7969L66.9062 56.6406C66.6719 57.4219 65.8906 58.0469 65.0312 58.0469H33.9375C33.1562 58.0469 32.375 57.4219 32.2187 56.5625L28.9375 36.0156C28.8594 35.3125 29.4844 34.6094 30.2656 34.6094ZM67.6094 41.25L68.3906 38.2812C68.4687 37.8906 68.2344 37.5781 67.8437 37.5781H62.2969C61.9062 37.5781 61.5156 37.8906 61.5156 38.2812L61.2031 41.25C61.125 41.6406 61.4375 41.9531 61.8281 41.9531H66.75C67.1406 41.9531 67.5312 41.6406 67.6094 41.25ZM65.1094 48.5156C65.5 48.5156 65.8906 48.2031 66.0469 47.8125L66.5937 45.5469C66.6719 45.1562 66.4375 44.8437 66.0469 44.8437H61.5937C61.2031 44.8437 60.8125 45.1562 60.8125 45.5469L60.5781 47.7344C60.5 48.125 60.8125 48.4375 61.2031 48.4375C61.125 48.5156 65.1094 48.5156 65.1094 48.5156ZM60.4219 55.1562H63.4687C63.8594 55.1562 64.25 54.8438 64.4062 54.4531L64.9531 52.1875C65.0312 51.7969 64.7969 51.4844 64.4062 51.4844H60.8906C60.5 51.4844 60.1094 51.7969 60.1094 52.1875L59.875 54.375C59.7187 54.7656 60.0312 55.1562 60.4219 55.1562ZM51.4375 54.375C51.4375 54.7656 51.75 55.0781 52.1406 55.0781H55.9687C56.3594 55.0781 56.75 54.7656 56.75 54.375L56.9844 52.1875C57.0625 51.7969 56.75 51.4844 56.3594 51.4844H52.1406C51.75 51.4844 51.4375 51.7969 51.4375 52.1875V54.375ZM51.4375 47.8125C51.4375 48.2031 51.75 48.5156 52.1406 48.5156H56.6719C57.0625 48.5156 57.4531 48.2031 57.4531 47.8125L57.6875 45.625C57.7656 45.2344 57.4531 44.9219 57.0625 44.9219H52.1406C51.75 44.9219 51.4375 45.2344 51.4375 45.625V47.8125ZM51.4375 41.25C51.4375 41.6406 51.75 41.9531 52.1406 41.9531H57.375C57.7656 41.9531 58.1562 41.6406 58.1562 41.25L58.5469 38.2812C58.625 37.8906 58.3125 37.5781 57.9219 37.5781H52.2187C51.8281 37.5781 51.5156 37.8906 51.5156 38.2812C51.4375 38.2812 51.4375 41.25 51.4375 41.25ZM43.4687 54.375C43.5469 54.7656 43.8594 55.0781 44.25 55.0781H47.6875C48.0781 55.0781 48.3906 54.7656 48.3906 54.375V52.1875C48.3906 51.7969 48.0781 51.4844 47.6875 51.4844H43.8594C43.4687 51.4844 43.1562 51.7969 43.2344 52.1875L43.4687 54.375ZM42.7656 47.8125C42.8437 48.2031 43.1562 48.5156 43.5469 48.5156H47.6875C48.0781 48.5156 48.3906 48.2031 48.3906 47.8125V45.625C48.3906 45.2344 48.0781 44.9219 47.6875 44.9219H43.1562C42.7656 44.9219 42.4531 45.2344 42.5312 45.625L42.7656 47.8125ZM42.0625 41.25C42.1406 41.6406 42.4531 41.9531 42.8437 41.9531H47.6875C48.0781 41.9531 48.3906 41.6406 48.3906 41.25V38.2812C48.3906 37.8906 48.0781 37.5781 47.6875 37.5781H42.375C41.9844 37.5781 41.6719 37.8906 41.75 38.2812L42.0625 41.25ZM35.2656 54.375C35.3437 54.7656 35.7344 55.0781 36.125 55.0781H39.875C40.2656 55.0781 40.5781 54.7656 40.5 54.375L40.2656 52.1875C40.1875 51.7969 39.875 51.4844 39.4844 51.4844H35.5C35.1094 51.4844 34.7969 51.7969 34.875 52.1875L35.2656 54.375ZM34.25 47.8125C34.3281 48.2031 34.7187 48.5156 35.1094 48.5156H39.25C39.6406 48.5156 39.9531 48.2031 39.875 47.8125L39.6406 45.625C39.5625 45.2344 39.25 44.9219 38.8594 44.9219H34.5625C34.1719 44.9219 33.8594 45.2344 33.9375 45.625L34.25 47.8125ZM33.2344 41.25C33.3125 41.6406 33.7031 41.9531 34.0937 41.9531H38.5469C38.9375 41.9531 39.25 41.6406 39.1719 41.25L38.8594 38.2812C38.7812 37.8906 38.4687 37.5781 38.0781 37.5781H33.4687C33.0781 37.5781 32.7656 37.8906 32.8437 38.2812L33.2344 41.25Z" fill="#F15744"/>
<path d="M63.3906 73.4375C60.9744 73.4375 59.0156 71.4787 59.0156 69.0625C59.0156 66.6463 60.9744 64.6875 63.3906 64.6875C65.8069 64.6875 67.7656 66.6463 67.7656 69.0625C67.7656 71.4787 65.8069 73.4375 63.3906 73.4375Z" fill="#62727A"/>
<path d="M63.3906 71.25C62.1825 71.25 61.2031 70.2706 61.2031 69.0625C61.2031 67.8544 62.1825 66.875 63.3906 66.875C64.5987 66.875 65.5781 67.8544 65.5781 69.0625C65.5781 70.2706 64.5987 71.25 63.3906 71.25Z" fill="white"/>
<path d="M36.9844 73.4375C34.5681 73.4375 32.6094 71.4787 32.6094 69.0625C32.6094 66.6463 34.5681 64.6875 36.9844 64.6875C39.4006 64.6875 41.3594 66.6463 41.3594 69.0625C41.3594 71.4787 39.4006 73.4375 36.9844 73.4375Z" fill="#62727A"/>
<path d="M34.7969 69.0625C34.7969 70.3125 35.8125 71.25 36.9844 71.25C38.2344 71.25 39.1719 70.2344 39.1719 69.0625C39.1719 67.8125 38.1563 66.875 36.9844 66.875C35.8125 66.875 34.7969 67.8125 34.7969 69.0625Z" fill="white"/>
<path d="M25.2656 26.5625H27.4531V30.9375H25.2656C24.875 30.9375 24.5625 30.625 24.5625 30.2344V27.2656C24.5625 26.875 24.875 26.5625 25.2656 26.5625Z" fill="#62727A"/>
<path d="M63.3906 63.2031C66.5937 63.2031 69.25 65.8594 69.25 69.0625H57.5313C57.5313 65.7813 60.1094 63.2031 63.3906 63.2031ZM36.9844 63.2031C40.1875 63.2031 42.8438 65.8594 42.8438 69.0625H31.125C31.125 65.7813 33.7813 63.2031 36.9844 63.2031Z" fill="#F15744"/>
<defs>
<linearGradient id="paint0_linear_13_35" x1="60.2313" y1="26.2407" x2="62.8" y2="36.4" gradientUnits="userSpaceOnUse">
<stop offset="0.208333" stop-color="#FF7574"/>
<stop offset="1" stop-color="#FF0806"/>
</linearGradient>
<linearGradient id="paint1_linear_13_35" x1="56.7475" y1="30.9122" x2="56.7475" y2="39.9429" gradientUnits="userSpaceOnUse">
<stop offset="0.442708" stop-color="#FF7574"/>
<stop offset="1" stop-color="#FF0300"/>
</linearGradient>
</defs>
</svg>
