<svg width="800" height="500" viewBox="0 0 800 500" fill="none" xmlns="http://www.w3.org/2000/svg">
<path d="M563.815 230.198C563.585 230.753 563.28 231.016 563.132 231.562C562.984 232.109 562.31 232.854 562.114 233.377C561.917 233.9 562.001 234.305 562.449 233.437C562.896 232.568 563.068 232.239 563.515 231.764C563.963 231.289 563.817 230.199 564.634 230.475C565.095 230.63 564.046 229.643 563.815 230.198ZM566.515 226.41C566.066 226.554 565.901 227.618 564.731 228.902C564.308 229.367 565.041 230.122 565.348 229.78C565.55 229.555 564.897 229.441 565.111 229.104C565.386 228.67 565.922 228.346 566.506 227.018C566.524 227.031 567.3 227.703 567.484 227.43C567.724 227.071 566.751 226.334 566.515 226.41ZM571.33 220.074C570.865 220.166 570.636 221.232 569.372 222.401C568.913 222.824 569.615 223.683 569.947 223.372C570.167 223.168 569.509 222.972 569.746 222.652C570.051 222.243 570.616 221.978 571.286 220.694C571.303 220.709 572.054 221.489 572.256 221.233C572.522 220.897 571.575 220.026 571.33 220.074ZM568.323 223.934C567.771 225.174 567.043 225.545 567.089 225.944C567.113 226.153 567.984 226.783 568.166 226.508C568.306 226.297 567.549 225.813 567.534 225.801C568.315 225.029 568.373 224.52 568.599 224.199C568.776 223.949 569.081 224.457 569.177 224.242C569.326 223.915 568.523 223.485 568.323 223.934ZM573.711 217.36C573.333 217.34 573.108 218.201 572.049 218.929C571.664 219.193 572.197 220.075 572.476 219.88C572.66 219.752 572.138 219.445 572.341 219.224C572.601 218.94 573.065 218.833 573.653 217.88C573.666 217.896 574.242 218.721 574.414 218.545C574.639 218.314 573.91 217.371 573.711 217.36Z" fill="#222222"/>
<path d="M584.751 213.812C585.034 213.45 585.477 213.018 586.156 212.646C584.854 211.681 583.173 212.374 583.702 211.47C584.508 210.092 583.642 208.969 583.642 208.969C583.642 208.969 582.41 209.678 581.597 209.796C581.684 208.127 581.103 207.191 581.103 207.191C581.103 207.191 579.895 208.188 579.131 208.48C578.243 207.631 576.688 207.767 576.688 207.767C576.688 207.767 576.92 208.981 576.805 209.805C575.96 209.807 575.232 209.972 575.232 209.972C576.373 211.027 576.848 211.673 576.953 212.064C576.142 212.055 575.352 212.459 575.352 212.459C577.822 214.366 577.076 216.367 576.148 217.642C575.66 217.091 575.219 216.553 575.104 216.336C574.669 215.514 574.075 215.392 573.759 215.392C572.577 215.392 571.637 217.01 571.378 217.507C571.008 218.214 570.56 218.862 570.286 219.083C569.615 219.626 568.68 220.49 568.317 221.706C568.173 222.188 567.66 222.777 567.286 223.206C567.033 223.496 566.815 223.746 566.672 223.99C566.628 224.065 566.58 224.15 566.527 224.242C566.239 224.75 565.845 225.444 565.281 225.957C564.35 226.808 563.703 227.826 563.507 228.75C563.494 228.813 563.29 228.995 563.192 229.083C562.879 229.362 562.452 229.744 562.31 230.414C562.183 231.02 561.655 232.138 561.432 232.418C560.875 233.125 560.702 233.892 560.96 234.523C561.16 235.013 561.599 235.316 562.105 235.316C562.55 235.316 563.016 235.092 563.453 234.665C563.584 234.537 563.761 234.326 564.007 234.033C564.354 233.618 565.273 232.523 565.607 232.365C566.498 232.121 567.707 231.006 568.397 230.072C568.674 229.695 569.31 229.196 569.87 228.757C570.432 228.315 570.962 227.899 571.314 227.488C571.699 227.04 572.197 226.753 572.774 226.42C573.513 225.993 574.351 225.51 575.11 224.578C575.39 224.235 575.97 223.843 576.531 223.465C577.659 222.704 578.725 221.985 578.718 220.837C578.714 220.184 578.35 219.616 577.637 219.149C577.489 219.052 577.173 218.745 576.813 218.365C577.976 216.916 579.813 215.502 581.488 218.902C581.488 218.902 582.01 218.228 582.189 217.072C582.517 217.036 582.999 217.294 583.705 218.109C583.705 218.109 584.158 216.971 583.885 215.899C584.541 215.342 585.801 215.78 585.801 215.78C585.801 215.78 585.687 214.506 584.751 213.812ZM577.223 219.932C579.432 221.377 575.641 222.575 574.505 223.97C573.271 225.485 571.753 225.663 570.724 226.863C570.068 227.627 568.401 228.635 567.766 229.497C567.13 230.357 566.061 231.315 565.402 231.487C564.744 231.66 563.289 233.617 562.915 233.983C562.608 234.283 562.325 234.409 562.105 234.409C561.616 234.409 561.445 233.777 562.046 233.017C562.375 232.601 562.951 231.352 563.105 230.621C563.26 229.889 564.148 229.689 564.302 228.958C564.457 228.226 565.025 227.365 565.8 226.658C566.575 225.952 567.057 224.995 567.357 224.484C567.656 223.973 568.788 223.01 569.093 221.991C569.397 220.972 570.29 220.202 570.768 219.816C571.243 219.431 571.783 218.537 572.084 217.962C572.308 217.533 573.073 216.298 573.759 216.298C573.99 216.298 574.212 216.438 574.401 216.796C574.553 217.081 575.05 217.696 575.594 218.31C575.461 218.454 575.336 218.579 575.233 218.679C575.153 218.758 575.138 218.864 575.162 218.977L575.161 218.978C575.176 219.041 575.199 219.101 575.229 219.157C575.414 219.571 575.673 219.624 575.673 219.624L575.673 219.623C575.782 219.681 575.88 219.69 575.928 219.615C576.028 219.463 576.151 219.274 576.293 219.068C576.685 219.475 577.034 219.808 577.223 219.932ZM580.62 208.759C580.62 208.759 581.81 211.687 579.079 214.561C579.079 214.561 580.601 211.848 580.62 208.759ZM577.664 215.866C577.664 215.866 578.361 213.051 577.655 210.343C577.655 210.343 579.382 212.56 577.664 215.866ZM577.103 217.162C580.872 212.409 584.111 214.485 584.111 214.485C580.46 214.003 577.103 217.162 577.103 217.162ZM580.11 213.906C582.424 211.356 584.2 212.679 584.2 212.679C582.175 212.541 580.11 213.906 580.11 213.906Z" fill="#222222"/>
<path d="M554.896 216.517C555.094 216.54 555.293 216.483 555.448 216.359C555.604 216.235 555.704 216.055 555.727 215.857C555.749 215.659 555.692 215.461 555.568 215.305C555.444 215.15 555.264 215.049 555.066 215.027C554.151 214.922 553.309 215.316 552.704 216.011C552.105 216.699 551.735 217.681 551.659 218.835C551.65 218.935 551.661 219.035 551.692 219.13C551.722 219.225 551.771 219.313 551.836 219.389C551.901 219.465 551.981 219.528 552.07 219.572C552.16 219.617 552.257 219.644 552.357 219.65C552.456 219.657 552.557 219.643 552.651 219.611C552.746 219.578 552.833 219.527 552.907 219.46C552.981 219.394 553.042 219.313 553.084 219.222C553.127 219.132 553.151 219.034 553.156 218.934C553.214 218.031 553.498 217.384 553.836 216.995C554.169 216.613 554.546 216.478 554.896 216.517ZM554.499 208.181C554.242 208.844 554.123 209.553 554.152 210.264C554.18 210.974 554.354 211.672 554.664 212.312C553.673 212.281 552.695 212.538 551.847 213.052C551 213.566 550.32 214.315 549.89 215.208C548.857 217.35 548.585 219.78 549.118 222.097L549.271 222.766C549.277 222.791 549.284 222.815 549.292 222.839L550.058 225.087C550.22 225.563 550.484 225.998 550.832 226.362C551.179 226.726 551.602 227.01 552.07 227.194C552.538 227.378 553.041 227.457 553.543 227.427C554.045 227.397 554.535 227.258 554.978 227.019C555.03 226.991 555.087 226.974 555.145 226.968C555.204 226.963 555.263 226.969 555.319 226.987C555.375 227.005 555.427 227.034 555.471 227.073C555.516 227.111 555.552 227.159 555.578 227.211C555.799 227.663 556.116 228.061 556.507 228.378C556.898 228.695 557.353 228.923 557.841 229.046C558.329 229.169 558.837 229.184 559.332 229.091C559.826 228.997 560.294 228.797 560.703 228.504L562.634 227.121C562.655 227.106 562.674 227.09 562.693 227.073L563.208 226.619C564.991 225.046 566.184 222.911 566.592 220.569C566.712 219.878 566.689 219.171 566.524 218.49C566.36 217.809 566.057 217.168 565.635 216.609C565.213 216.05 564.681 215.583 564.071 215.238C563.461 214.892 562.787 214.676 562.09 214.601L560.16 214.396L560.157 214.395C560.424 213.661 560.797 212.899 561.244 212.288C561.785 211.55 562.328 211.176 562.811 211.136C563.009 211.119 563.193 211.024 563.321 210.872C563.449 210.72 563.512 210.523 563.495 210.325C563.478 210.126 563.383 209.943 563.231 209.815C563.079 209.686 562.882 209.624 562.684 209.64C561.548 209.737 560.66 210.545 560.034 211.401L559.947 211.522C559.858 210.994 559.688 210.482 559.443 210.005C559.108 209.353 558.638 208.778 558.064 208.321C557.491 207.863 556.826 207.533 556.115 207.351C555.791 207.268 555.447 207.306 555.149 207.458C554.851 207.611 554.62 207.868 554.499 208.18L554.499 208.181ZM555.858 208.835C556.34 208.974 556.788 209.211 557.176 209.53C557.563 209.85 557.881 210.245 558.11 210.692C558.34 211.138 558.476 211.626 558.511 212.127C558.545 212.628 558.476 213.131 558.309 213.604C558.135 213.553 557.965 213.49 557.8 213.414L557.251 213.104C556.747 212.758 556.336 212.292 556.057 211.747C555.827 211.301 555.69 210.812 555.656 210.311C555.622 209.811 555.69 209.308 555.858 208.835ZM556.283 214.279L556.462 214.381C556.67 214.519 556.887 214.642 557.111 214.749L557.973 215.236C558.598 215.589 559.288 215.81 560.002 215.887L561.933 216.093C562.426 216.145 562.902 216.298 563.333 216.543C563.764 216.787 564.141 217.117 564.439 217.512C564.738 217.908 564.952 218.361 565.068 218.842C565.184 219.324 565.201 219.824 565.116 220.312C564.766 222.319 563.744 224.147 562.216 225.495L561.731 225.924L559.831 227.285C559.599 227.451 559.334 227.564 559.054 227.617C558.773 227.671 558.485 227.662 558.208 227.592C557.932 227.522 557.674 227.393 557.452 227.213C557.231 227.034 557.051 226.808 556.926 226.552C556.811 226.318 556.651 226.109 556.453 225.938C556.256 225.768 556.027 225.639 555.778 225.559C555.53 225.479 555.268 225.451 555.009 225.475C554.749 225.499 554.497 225.575 554.267 225.699C554.016 225.834 553.739 225.913 553.454 225.93C553.17 225.947 552.885 225.902 552.619 225.798C552.354 225.694 552.114 225.533 551.917 225.327C551.72 225.12 551.57 224.874 551.479 224.604L550.726 222.392L550.581 221.76C550.123 219.775 550.356 217.694 551.24 215.858C551.455 215.412 551.759 215.015 552.134 214.691C552.509 214.367 552.946 214.124 553.419 213.976C553.892 213.828 554.39 213.778 554.882 213.83C555.375 213.882 555.852 214.035 556.283 214.279Z" fill="#222222"/>
<path d="M597.749 207.754H597.75L605.25 207.754L605.25 207.754C606.008 207.753 606.742 208.018 607.325 208.501C607.909 208.984 608.305 209.656 608.445 210.401C608.586 211.145 608.462 211.915 608.095 212.578C607.728 213.241 607.141 213.755 606.435 214.031L606.026 214.191L606.132 214.617C606.475 215.995 607.483 217.016 608.82 218.334C608.821 218.334 608.821 218.334 608.822 218.335L608.844 218.357L608.844 218.357L608.847 218.36C609.808 219.306 610.91 220.393 611.873 221.837C613.058 223.636 613.621 225.774 613.476 227.923L613.473 227.964L613.477 228.005C613.493 228.166 613.5 228.332 613.5 228.504V241.004C613.5 242.013 613.234 243.005 612.73 243.879C612.225 244.753 611.499 245.479 610.625 245.983C609.751 246.488 608.759 246.754 607.75 246.754C606.741 246.754 605.749 246.488 604.875 245.983L604.625 245.839L604.375 245.983C603.501 246.489 602.51 246.755 601.501 246.754H601.499C600.49 246.755 599.499 246.489 598.625 245.983L598.375 245.839L598.125 245.983C597.251 246.488 596.259 246.754 595.25 246.754C594.241 246.754 593.249 246.488 592.375 245.983C591.501 245.479 590.775 244.753 590.27 243.879C589.766 243.005 589.5 242.013 589.5 241.004V228.504C589.5 228.332 589.507 228.166 589.523 228.001L589.527 227.96L589.524 227.919C589.508 227.697 589.5 227.475 589.5 227.253C589.5 224.096 591.016 221.277 593.392 219.325L593.417 219.305L593.439 219.282C593.651 219.056 593.86 218.84 594.062 218.63C594.107 218.584 594.151 218.538 594.195 218.493L594.2 218.49L594.259 218.429C595.569 217.077 596.553 216.041 596.88 214.613L596.976 214.191L596.573 214.035C595.865 213.761 595.275 213.248 594.906 212.585C594.537 211.923 594.411 211.151 594.551 210.405C594.691 209.66 595.087 208.986 595.671 208.502C596.255 208.017 596.991 207.753 597.749 207.754ZM597.75 207.254H605.25H597.75ZM611.5 237.754H612V237.254V228.504C612 228.348 611.991 228.199 611.978 228.054L611.978 228.054L611.977 228.044C611.971 227.998 611.97 227.952 611.974 227.905C612.118 226.024 611.623 224.149 610.567 222.585C610.423 222.369 610.273 222.158 610.116 221.952L609.966 221.754H609.717H593.295H593.057L592.907 221.938C591.542 223.614 590.87 225.749 591.026 227.905L591.027 227.91C591.031 227.956 591.03 228.002 591.025 228.048C591.009 228.199 591 228.351 591 228.502V228.504V237.254V237.754H591.5H611.5ZM591.5 239.254H591V239.754V241.004V241.004C591 241.804 591.226 242.588 591.653 243.266C592.079 243.944 592.688 244.487 593.409 244.834C594.131 245.18 594.936 245.316 595.731 245.226C596.526 245.135 597.28 244.822 597.905 244.322L597.905 244.321C598.039 244.214 598.204 244.156 598.375 244.156C598.546 244.156 598.711 244.214 598.845 244.321L598.845 244.321C599.573 244.905 600.495 245.254 601.5 245.254C602.505 245.254 603.427 244.905 604.155 244.321L604.155 244.321C604.289 244.214 604.454 244.156 604.625 244.156C604.796 244.156 604.961 244.214 605.094 244.321L605.095 244.322C605.72 244.822 606.474 245.135 607.269 245.226C608.064 245.316 608.869 245.18 609.591 244.834C610.312 244.487 610.921 243.944 611.347 243.266C611.774 242.588 612 241.804 612 241.004V241.004V239.754V239.254H611.5H591.5ZM604.606 214.66L604.529 214.254H604.115H598.89H598.472L598.398 214.665C598.036 216.674 596.758 218.008 595.432 219.373L595.419 219.385L595.408 219.398L595.381 219.431L594.684 220.254H595.762H607.415H608.643L607.764 219.396L607.661 219.295C607.66 219.294 607.66 219.294 607.66 219.294C606.311 217.968 604.985 216.645 604.606 214.66ZM597.75 212.754H605.25C605.714 212.754 606.159 212.569 606.487 212.241C606.816 211.913 607 211.468 607 211.004C607 210.54 606.816 210.094 606.487 209.766C606.159 209.438 605.714 209.254 605.25 209.254H597.75C597.286 209.254 596.841 209.438 596.513 209.766C596.184 210.094 596 210.54 596 211.004C596 211.468 596.184 211.913 596.513 212.241C596.841 212.569 597.286 212.754 597.75 212.754Z" stroke="black"/>
<path d="M632.801 241.351L632.327 241.193L614.793 235.367L614.319 235.21L614.476 234.735L616.891 227.469L616.891 227.468C616.934 227.339 616.985 227.213 617.042 227.09C617.056 227.058 617.068 227.025 617.076 226.991L617.077 226.986C617.541 225.127 618.734 223.534 620.406 222.531L620.603 222.413L620.821 222.486L635.218 227.27L635.446 227.346L635.53 227.571C635.61 227.789 635.684 228.01 635.752 228.232C636.25 229.852 636.167 231.573 635.513 233.113M632.801 241.351L635.512 233.114C635.512 233.114 635.513 233.113 635.513 233.113M632.801 241.351L632.959 240.877M632.801 241.351L632.959 240.877M635.513 233.113C635.499 233.145 635.489 233.178 635.482 233.213M635.513 233.113L635.482 233.213M632.959 240.877L635.373 233.611C635.417 233.478 635.452 233.35 635.48 233.223L635.48 233.223M632.959 240.877L635.48 233.223M635.48 233.223L635.482 233.213M635.48 233.223L635.482 233.213M628.549 212.277L628.55 212.277L635.125 214.462L635.125 214.462C635.788 214.682 636.354 215.113 636.727 215.677C637.099 216.24 637.255 216.898 637.176 217.536C637.096 218.173 636.786 218.758 636.294 219.19C635.802 219.623 635.157 219.877 634.466 219.9L634.013 219.915L633.984 220.368C633.903 221.638 634.517 222.796 635.322 224.273C635.323 224.274 635.323 224.274 635.323 224.275L635.337 224.3L635.338 224.303C635.92 225.37 636.584 226.589 637.028 228.061C637.566 229.886 637.469 231.806 636.757 233.529L636.741 233.569L636.731 233.611C636.701 233.747 636.663 233.884 636.616 234.024L633.167 244.403C632.894 245.226 632.396 245.96 631.722 246.53C631.048 247.101 630.22 247.49 629.319 247.653C628.418 247.817 627.479 247.749 626.595 247.455C625.712 247.162 624.919 246.654 624.295 245.984L624.109 245.783L623.839 245.832C622.939 245.997 622 245.929 621.117 245.635L621.116 245.635C620.232 245.342 619.439 244.834 618.816 244.163L618.63 243.963L618.361 244.012C617.46 244.175 616.52 244.108 615.637 243.814C614.754 243.521 613.96 243.012 613.337 242.342C612.713 241.672 612.282 240.866 612.084 240.005C611.885 239.144 611.926 238.259 612.199 237.436L615.648 227.057C615.694 226.916 615.745 226.783 615.803 226.654L615.821 226.614L615.832 226.572C615.879 226.385 615.933 226.201 615.993 226.018C616.854 223.427 618.94 221.54 621.552 220.615L621.582 220.604L621.61 220.59C621.858 220.465 622.1 220.347 622.335 220.231C622.385 220.207 622.435 220.183 622.484 220.159L622.489 220.158L622.564 220.121C624.079 219.384 625.248 218.802 625.942 217.69L626.178 217.312L625.829 217.034C625.287 216.603 624.92 216.013 624.782 215.372C624.645 214.731 624.745 214.075 625.063 213.515C625.381 212.955 625.9 212.52 626.536 212.291C627.173 212.062 627.886 212.056 628.549 212.277ZM628.708 211.803L635.283 213.987L628.708 211.803ZM614.419 236.494L613.944 236.337L613.787 236.811L613.442 237.849L613.442 237.849C613.215 238.531 613.198 239.264 613.388 239.963C613.578 240.662 613.967 241.297 614.508 241.798C615.048 242.299 615.718 242.648 616.442 242.804C617.166 242.961 617.918 242.921 618.611 242.686L618.611 242.685C618.749 242.638 618.906 242.637 619.054 242.686C619.202 242.735 619.327 242.83 619.409 242.95L619.409 242.951C619.891 243.654 620.607 244.215 621.491 244.508C622.374 244.801 623.283 244.781 624.09 244.506L624.091 244.506C624.229 244.459 624.385 244.458 624.533 244.507C624.681 244.556 624.806 244.651 624.888 244.771L624.889 244.772C625.303 245.375 625.881 245.857 626.555 246.165C627.229 246.472 627.974 246.595 628.707 246.517C629.439 246.438 630.132 246.162 630.702 245.716C631.273 245.27 631.698 244.672 631.924 243.99L631.924 243.99L632.269 242.952L632.427 242.478L631.952 242.32L614.419 236.494ZM632.715 219.945L632.764 219.539L632.376 219.41L627.795 217.888L627.403 217.757L627.201 218.119C626.343 219.657 624.876 220.385 623.331 221.134L623.316 221.142L623.301 221.15L623.267 221.169L622.298 221.725L623.359 222.078L633.574 225.472L634.786 225.875L634.17 224.756L634.107 224.642C634.107 224.642 634.107 224.642 634.106 224.641C633.287 223.142 632.503 221.676 632.715 219.945ZM627.17 216.429L633.745 218.614C634.154 218.749 634.601 218.728 634.991 218.546C635.381 218.363 635.682 218.033 635.818 217.623C635.954 217.213 635.911 216.769 635.708 216.389C635.505 216.01 635.159 215.725 634.751 215.589L628.175 213.404C627.767 213.268 627.32 213.29 626.93 213.472C626.539 213.655 626.239 213.985 626.103 214.395C625.966 214.804 626.01 215.249 626.213 215.629C626.416 216.008 626.762 216.293 627.17 216.429Z" stroke="black"/>
<ellipse cx="400.5" cy="477.254" rx="389.5" ry="9" fill="#EDEDED"/>
<path d="M647 256.254C574.167 246.254 427.8 226.054 425 225.254L448.5 377.254L649 366.254L647 256.254Z" stroke="black"/>
<path d="M250.5 219.254L212.5 439.754H243C260.667 388.754 296.1 284.954 296.5 277.754C296.9 270.554 300.667 256.087 302.5 249.754" stroke="black"/>
<path d="M296.5 275.754C302.667 296.42 315.5 341.454 317.5 356.254C320 374.754 321 442.754 329.5 446.254H364.5C364.5 419.92 364 363.554 362 348.754C360 333.954 345.5 258.254 338.5 222.254" stroke="black"/>
<path d="M239.5 181.254C237.5 181.254 221 168.254 213 161.754C211.8 156.954 219.167 146.754 223 142.254C224.5 140.754 228.4 134.254 232 120.254C235.6 106.254 262.167 100.087 275 98.7537C288.6 114.754 305.667 106.087 312.5 99.7537C351.7 103.754 359.833 152.087 359 175.754L336.5 180.254L332 158.254C335.5 177.42 341.9 216.854 339.5 221.254C336.5 226.754 323.5 224.754 298.5 228.754C273.5 232.754 246.5 217.254 246 216.754C245.6 216.354 250.5 176.92 253 157.254C249.333 165.254 241.5 181.254 239.5 181.254Z" stroke="black"/>
<path d="M275 98.2536C276.833 96.7536 280.8 92.7536 282 88.7536C283.5 83.7536 281.5 82.2536 281 81.7536C280.6 81.3536 278.5 77.9203 277.5 76.2536L278 72.2536C275.667 70.2536 271.8 64.7536 275 58.7536C278.2 52.7536 278.333 60.587 278 65.2536V66.2537C278.333 66.7537 279.2 67.4537 280 66.2537C281 64.7537 274 37.7537 295 34.7537C316 31.7537 319.5 50.7537 319 56.7537C318.5 62.7537 319.5 77.2536 309 88.7536C307.833 91.587 306.8 97.6537 312 99.2537" stroke="black"/>
<path d="M288.5 90.2537C290.833 91.7537 296.5 94.5537 300.5 93.7537" stroke="black"/>
<path d="M289 61.2537C291 60.0871 296 58.4537 300 61.2537" stroke="black"/>
<path d="M306 64.7997C308 63.6331 313 61.9997 317 64.7997" stroke="black"/>
<path d="M306 64.7537V75.7537L304.5 76.7537H300.5" stroke="black"/>
<path d="M212.5 161.754C204.833 156.42 188.8 144.754 186 140.754C186.333 139.92 186.5 137.154 184.5 132.754C180.167 127.254 171.5 115.854 171.5 114.254C170.833 112.754 169.3 110.554 168.5 113.754C167.5 117.754 171 124.754 171.5 125.754C171.9 126.554 175 129.42 176.5 130.754C170.333 125.42 157.7 113.154 156.5 106.754C156.167 105.92 155.2 104.754 154 106.754C154 107.92 154.3 110.954 155.5 113.754C156.7 116.554 162 122.92 164.5 125.754C161.5 122.254 155.2 114.754 154 112.754C152.5 110.254 151 112.754 152 114.754C153 116.754 158.5 123.754 158.5 124.254C158.5 124.754 152.5 116.254 152 116.254C151.5 116.254 151 114.754 150.5 116.754C150 118.754 158 128.754 159.5 130.754C160.7 132.354 154.667 125.087 151.5 121.254C151 120.754 150.1 120.054 150.5 121.254L159.5 135.754C162 138.92 167.8 145.354 171 145.754C174.2 146.154 188.667 168.254 195.5 179.254C200.833 186.92 213.2 201.354 220 197.754C226.8 194.154 233.833 184.587 236.5 180.254" stroke="black"/>
<path d="M358 176.254C358.5 184.754 360.5 202.054 364.5 203.254C368.5 204.454 375.833 207.087 379 208.254" stroke="black"/>
<path d="M340.5 220.754C356.833 224.087 389.7 230.754 390.5 230.754C391.5 230.754 396 232.254 398.5 233.254C401 234.254 412.5 237.754 414 237.254" stroke="black"/>
<path d="M410 206.754C410.5 206.754 415.5 200.254 417.5 200.254C419.5 200.254 419.5 201.754 419.5 202.254C419.5 202.654 417.167 208.087 416 210.754L415.5 211.254" stroke="black"/>
<path d="M418.5 214.254C419.5 214.42 421.6 215.154 422 216.754C422.4 218.354 421.5 219.42 421 219.754" stroke="black"/>
<path d="M382 210.754C376.8 208.754 379.167 204.254 381 202.254C386.2 201.854 395.167 202.42 399 202.754C415 206.354 421.667 218.587 423 224.254L446 378.754L427 423.754H654V434.254H411.5C418.5 417.587 432.8 383.354 434 379.754C435.2 376.154 433.5 362.587 432.5 356.254L427 316.754L419.5 269.254L416.5 249.254C415.833 242.92 413.7 228.454 410.5 221.254C406.5 212.254 393 211.254 392 211.254C391.2 211.254 385 210.92 382 210.754Z" fill="#D9D9D9" stroke="black"/>
<circle cx="440" cy="457.254" r="14.5" fill="#D9D9D9" stroke="black"/>
<circle cx="635" cy="457.254" r="14.5" fill="#D9D9D9" stroke="black"/>
<circle cx="295.5" cy="64.7537" r="1.5" fill="black"/>
<circle cx="312.5" cy="67.7537" r="1.5" fill="black"/>
<path d="M320.471 50.9995C320.471 50.9995 320.205 41.5265 317.167 36.8316C315.247 33.8627 305.557 26.2437 294.585 26.1109L293.601 26.023C292.015 27.6636 288.235 31.9259 287.763 34.5669C287.019 38.7015 287.144 51.422 287.144 51.422C287.144 51.422 293.962 50.9574 297.943 50.4737C311.407 48.8472 320.471 50.9995 320.471 50.9995Z" fill="white"/>
<path d="M288.242 33.23C288.557 32.6253 293.724 26.0495 293.724 26.0495C293.724 26.0495 286.401 25.9391 280.265 29.066C277.342 30.555 273.9 32.5056 272.902 35.3172C271.422 39.478 271.684 48.9417 271.687 48.9552C271.696 49.2721 275.544 50.1267 275.846 50.1965C277.574 50.6009 283.62 51.7243 287.309 51.3801C287.304 51.379 287.042 35.558 288.242 33.23Z" fill="#FE7A15"/>
<path d="M311.397 50.4366C311.436 50.2554 310.617 37.6003 307.619 34.264C304.828 31.1538 297.285 26.2946 297.285 26.2946L293.66 26.1133C293.66 26.1133 288.885 31.0058 287.956 34.0134C286.674 38.1568 287.049 51.4749 287.049 51.4749" stroke="white" stroke-width="2.079" stroke-miterlimit="10"/>
<path d="M298.197 26.0217C298.169 25.4809 296.903 24.8186 295.328 24.7364C293.753 24.6541 292.462 25.1856 292.49 25.7264C292.518 26.2672 293.882 26.2952 295.458 26.3733C297.034 26.4515 298.224 26.5625 298.197 26.0217Z" fill="black"/>
<path d="M332.612 64.5621C332.569 64.9927 332.271 66.2176 330.468 65.0768C328.665 63.936 325.12 60.684 325.12 60.684C325.12 60.684 329.314 60.3975 331.187 61.8079C333.059 63.2183 332.656 64.1315 332.612 64.5621Z" fill="black"/>
<path d="M332.012 61.4173L320.466 50.9984C320.466 50.9984 317.808 50.0002 311.334 49.4397C303.472 48.7595 283.357 51.2663 283.357 51.2663L291.331 59.247C291.331 59.247 296.403 64.0197 302.753 63.195C312.244 61.9591 322.659 59.9312 325.525 60.0471C331.109 60.2642 332.012 61.4173 332.012 61.4173Z" fill="#FE7A15"/>
<path d="M300.599 64.0355C304.938 64.1382 320.42 61.0638 325.27 60.9667C326.718 60.9395 329.15 61.0779 330.489 61.9974C331.652 62.7971 332.52 64.0632 331.918 65.1708C331.826 65.3405 331.671 65.5141 331.432 65.514C331.914 65.7823 332.576 65.6582 332.923 65.3409C333.27 65.0236 333.353 64.5628 333.332 64.1184C333.289 63.2119 332.839 62.1267 332.012 61.4172C330.918 60.4773 328.835 59.5518 324.962 59.6363C318.168 59.7827 304.026 62.897 300.586 62.7085C295.527 62.4284 292.081 59.2841 291 58.4893C289.92 57.6904 289.917 58.1385 290.645 58.792C291.367 59.4444 295.119 63.9056 300.599 64.0355Z" fill="black"/>
<path d="M280 51.2538C278 50.7538 273.7 49.5538 272.5 48.7538C271 47.7538 269.5 64.2538 271 66.7538C272.5 69.2538 276.5 79.2537 279.5 79.7537" stroke="black"/>
<path d="M297.5 252.254L300.5 249.254L295 274.754H293.5L297.5 252.254Z" fill="#D9D9D9" stroke="#D9D9D9"/>
<path d="M269 228.254C267 228.654 257.167 224.087 252.5 221.754L216 437.254H220.5C237.5 367.42 271 227.854 269 228.254Z" fill="url(#paint0_linear_17_237)"/>
<path d="M231 159.754C231 167.354 237.667 171.254 241 172.254C239.8 175.054 238.167 177.087 237.5 177.754C235.5 177.754 216.5 161.754 215.5 159.754C214.7 158.154 220.5 149.42 223.5 145.254C228 143.254 231 127.254 236 117.754C241 108.254 265 102.754 268 101.754C270.4 100.954 272.667 102.087 273.5 102.754C289.9 119.154 308 109.587 315 102.754C316 103.42 317.6 105.254 316 107.254C314 109.754 305 113.754 299 115.754C293 117.754 273.5 109.754 265 110.254C256.5 110.754 250 111.754 245 115.754C240 119.754 234 137.754 229.5 145.254C225 152.754 231 150.254 231 159.754Z" fill="url(#paint1_linear_17_237)"/>
<path d="M439.5 299.754L429.5 230.754L644.5 261.254V305.254L439.5 299.754Z" fill="url(#paint2_linear_17_237)"/>
<path d="M206 465.254L213.5 439.254H242C245.167 443.42 251.8 452.254 253 454.254C254.5 456.754 266.5 461.754 268.5 461.254C270.5 460.754 275 462.254 275.5 467.254C276 472.254 271 477.254 257 480.754C245.8 483.554 218.333 478.254 206 475.254V465.254Z" fill="#FE7A15" stroke="black"/>
<path d="M325 472.075L332.442 446.254H360.724C363.866 450.392 370.448 459.164 371.639 461.15C373.128 463.633 385.036 468.599 387.02 468.102C389.005 467.606 393.47 469.095 393.966 474.061C394.463 479.026 389.501 483.992 375.609 487.468C364.494 490.249 337.239 484.985 325 482.006V472.075Z" fill="#FE7A15" stroke="black"/>
<path d="M333.5 226.754C334.3 226.754 336.5 225.42 337.5 224.754L360.5 348.254C360 349.754 359 352.154 359 349.754C359 346.754 332.5 226.754 333.5 226.754Z" fill="url(#paint3_linear_17_237)" stroke="#EAECED"/>
<path d="M326.5 472.254V480.754C369.5 491.254 383 485.254 389.5 479.754C396 474.254 389.5 470.254 389 469.754C388.6 469.354 387.833 469.587 387.5 469.754C379.9 486.154 343.667 478.254 326.5 472.254Z" fill="white" stroke="#EAECED" stroke-linecap="round"/>
<path d="M208 465.975V474.475C251 484.975 264.5 478.975 271 473.475C277.5 467.975 271 463.975 270.5 463.475C270.1 463.075 269.333 463.308 269 463.475C261.4 479.875 225.167 471.975 208 465.975Z" fill="white" stroke="#EAECED" stroke-linecap="round"/>
<path d="M243 442.254C240.167 443.087 234.3 445.254 233.5 447.254" stroke="#EAECED" stroke-linecap="round"/>
<path d="M361.5 449.254C358.667 450.087 352.8 452.254 352 454.254" stroke="#EAECED" stroke-linecap="round"/>
<path d="M364.5 452.254C361.667 453.087 355.8 455.254 355 457.254" stroke="#EAECED" stroke-linecap="round"/>
<path d="M367.5 456.254C364.667 457.087 358.8 459.254 358 461.254" stroke="#EAECED" stroke-linecap="round"/>
<path d="M245.5 445.254C242.667 446.087 236.8 448.254 236 450.254" stroke="#EAECED" stroke-linecap="round"/>
<path d="M248.5 449.254C245.667 450.087 239.8 452.254 239 454.254" stroke="#EAECED" stroke-linecap="round"/>
<path d="M213 164.254L234 180.254C231 185.087 223.7 195.054 218.5 196.254C213.3 197.454 205.667 188.754 202.5 184.254C206.5 187.087 215.3 192.254 218.5 190.254C221.7 188.254 216.167 172.087 213 164.254Z" fill="#EAECED" stroke="#EAECED" stroke-linecap="round"/>
<path d="M354 189.254C358.4 187.254 357.5 180.754 356.5 177.754L337 181.754C337.333 184.42 338.3 191.154 339.5 196.754C340.7 202.354 341 214.087 341 219.254H343C342.667 215.754 342 207.754 342 203.754C342 198.754 348.5 191.754 354 189.254Z" fill="#EAECED" stroke="#EAECED" stroke-linecap="round"/>
<path d="M449.5 209.254L451.5 227.254L508.5 235.754L505.5 212.754H497.5L491 210.254L481.5 211.754L468 207.254L457.5 210.754L449.5 209.254Z" fill="#EDEDED" stroke="black" stroke-linecap="round"/>
<path d="M579.041 227.573L572.117 244.308L515 236.631L524.275 215.371L531.959 217.594L538.898 216.999L547.607 221.081L561.826 220.51L570.939 226.791L579.041 227.573Z" fill="#EDEDED" stroke="black" stroke-linecap="round"/>
<path d="M639.041 235.573L632.117 252.308L575 244.631L584.274 223.371L591.959 225.594L598.898 224.999L607.607 229.081L621.826 228.51L630.939 234.791L639.041 235.573Z" fill="#EDEDED" stroke="black" stroke-linecap="round"/>
<path d="M456 210.254C452.167 191.587 445.5 153.454 449.5 150.254C454.5 146.254 477 195.754 479 210.254" stroke="black" stroke-linecap="round"/>
<path d="M497.138 212.549C500.104 206.827 505.37 195.091 502.703 193.92C499.368 192.456 483.088 207.125 481.451 211.609" stroke="black" stroke-linecap="round"/>
<ellipse cx="458.5" cy="172.254" rx="4.5" ry="2" fill="#D9D9D9"/>
<ellipse cx="461" cy="180.254" rx="5" ry="2" fill="#D9D9D9"/>
<ellipse cx="464" cy="188.254" rx="6" ry="2" fill="#D9D9D9"/>
<ellipse cx="465.5" cy="197.254" rx="7.5" ry="2" fill="#D9D9D9"/>
<ellipse cx="493.5" cy="203.254" rx="3.5" ry="1" fill="#D9D9D9"/>
<ellipse cx="491" cy="207.254" rx="4" ry="1" fill="#D9D9D9"/>
<path d="M532.5 217.254C532.667 216.587 532.7 214.754 531.5 212.754C530 210.254 528 204.254 529 202.754C530 201.254 532.5 201.254 533.5 202.754C534.5 204.254 540 199.754 539 197.254C538 194.754 546.5 193.254 546.5 194.754C546.5 196.254 550 199.754 549 201.254C548 202.754 545.5 202.754 548 204.254C550.5 205.754 552.5 206.254 550.5 208.254C548.5 210.254 546.5 209.754 545.5 212.754C544.5 215.754 544.5 216.754 545 217.754C545.4 218.554 545.5 219.754 545.5 220.254" stroke="black" stroke-linecap="round"/>
<path d="M536.5 216.754C536.833 211.254 538.4 199.854 542 198.254" stroke="black" stroke-linecap="round"/>
<path d="M311 79C304.6 83.4 295 80.8333 291 79C291 81.8 294.667 85.1667 296.5 86.5C305.3 87.7 309.833 82 311 79Z" stroke="black"/>
<path d="M291.5 76.5C290.167 76.5 287.7 76.8 288.5 78" stroke="black"/>
<defs>
<linearGradient id="paint0_linear_17_237" x1="242.543" y1="221.754" x2="242.543" y2="437.254" gradientUnits="userSpaceOnUse">
<stop offset="0.206936" stop-color="#D9D9D9"/>
<stop offset="1" stop-color="#E8EBEC" stop-opacity="0"/>
</linearGradient>
<linearGradient id="paint1_linear_17_237" x1="266.052" y1="101.479" x2="266.052" y2="177.754" gradientUnits="userSpaceOnUse">
<stop stop-color="#D9D9D9"/>
<stop offset="1" stop-color="#D9D9D9" stop-opacity="0"/>
</linearGradient>
<linearGradient id="paint2_linear_17_237" x1="537" y1="230.754" x2="537" y2="305.254" gradientUnits="userSpaceOnUse">
<stop offset="0.348958" stop-color="#D9D9D9"/>
<stop offset="1" stop-color="#EAECED" stop-opacity="0"/>
</linearGradient>
<linearGradient id="paint3_linear_17_237" x1="346.986" y1="224.754" x2="346.986" y2="350.772" gradientUnits="userSpaceOnUse">
<stop stop-color="#D9D9D9"/>
<stop offset="1" stop-color="#D9D9D9" stop-opacity="0"/>
</linearGradient>
</defs>
</svg>
