<svg width="100" height="100" viewBox="0 0 100 100" fill="none" xmlns="http://www.w3.org/2000/svg">
<rect width="100" height="100" rx="50" fill="white"/>
<path d="M47.5156 33.1719L36.0117 35.2695C36.0117 35.2695 36.1484 46.6445 36.0273 51.9766C35.9063 57.3086 35.8633 64.8672 35.9492 65.8242C36.0234 66.6563 38.5859 69.3008 38.5859 69.3008L47.2148 72.418L55.6016 72.1172L62.9102 68.7031C62.9102 68.7031 64 67.2383 64.207 66.7422C64.3672 66.3633 64.2188 55.7539 64.2188 50.7031C64.2188 46.4492 64.4336 34.8984 64.4336 34.8984L47.5156 33.1719Z" fill="#FEB502"/>
<path d="M36.0547 67.75C36.1875 68.3281 40.8242 73.5508 50.1875 73.5508C59.5508 73.5508 64.0391 68.9687 64.125 68.4961C64.2109 68.0234 64.2266 66.6758 64.2266 66.6758C64.2266 66.6758 59.6797 71.6172 50.3164 71.6602C40.8203 71.7031 35.9414 65.7695 35.9414 65.7695C35.9414 65.7695 35.9219 67.1719 36.0547 67.75Z" fill="#B0B0B0"/>
<path d="M40.0078 29.043L35.9961 32.0508C35.9961 32.0508 35.8789 33.3359 35.8828 33.9414C35.8906 34.8398 36.0117 35.2734 36.0117 35.2734C36.0117 35.2734 38.707 39.6484 50.3398 39.9609C60.8516 40.2422 64.4102 36.2656 64.4102 36.2656C64.4102 36.2656 64.8594 35.3242 64.957 34.6445C65.1211 33.5234 64.9258 32.5703 64.9258 32.5703L40.0078 29.043Z" fill="#E0E0E0"/>
<path d="M50.5352 26.5079C43.5781 26.254 36.0117 28.6134 35.9688 32.3048C35.9258 36.129 45.5508 38.3712 50.3164 38.4063C56.2344 38.4493 64.8359 36.3438 64.9648 32.9063C65.0977 29.4728 58.1445 26.7853 50.5352 26.5079Z" fill="#B0B0B0"/>
<path d="M50.5352 31.5312C50.5352 31.5312 39.2812 33.6796 38.6367 33.121C37.9922 32.5624 37.4766 32.0898 38.9375 30.8007C40.3984 29.5117 44.4297 27.7773 50.8789 28.0507C57.6445 28.3398 62.6836 30.6328 63.0078 32.4531C63.0664 32.7734 62.9766 33.3593 62.6094 33.5624C62.5273 33.6093 60.4727 34.6015 60.4727 34.6015C60.4727 34.6015 50.2344 31.4882 50.5352 31.5312Z" fill="#858585"/>
<path d="M57.4922 30.168C53.1289 28.9336 45.9922 28.6133 42.2109 30.2891C38.4297 31.9649 38.6641 33.1407 38.6641 33.1407C38.6641 33.1407 41.9141 36.2032 50.4062 36.3047C59.4727 36.4141 62.6055 33.5547 62.6055 33.5547C62.6055 33.5547 62.3477 31.543 57.4922 30.168Z" fill="#E0E0E0"/>
<path d="M40.8672 43.2617C40.5899 43.3984 40.5664 43.9062 40.5234 44.5507C40.4805 45.1953 40.3516 63.7539 40.4375 63.9257C40.5234 64.0976 43.4883 67.2773 50.2344 67.1484C56.7227 67.0234 59.8984 64.7226 59.8984 64.7226C59.8984 64.7226 59.9844 53.0078 60.0274 50.2578C60.0703 47.5078 60.3828 44.2851 60.0274 43.9609C59.4375 43.4218 56.6758 44.1601 50.2774 44.0742C43.8789 43.9882 41.3828 43.0039 40.8672 43.2617Z" fill="#719921"/>
<path d="M42.2422 45.2812C41.9375 45.7343 42.0586 54.0937 42.0586 55.7695C42.0586 57.4452 42.043 62.7538 42.043 62.7538C42.043 62.7538 44.6563 65.2226 49.8008 65.2148C55.0195 65.207 58.25 63.496 58.25 63.496C58.25 63.496 58.3945 56.4062 58.4375 53.2304C58.4805 50.0546 58.5625 46.2851 58.5703 45.7031C58.5781 45.2148 53.6875 46.0038 49.8242 45.832C44.9297 45.621 42.5 44.8945 42.2422 45.2812Z" fill="#E5DDA0"/>
<path d="M44.5977 48.41C44.3359 48.539 44.1797 48.6757 44.1289 49.1288C44.0625 49.7147 44.3203 50.0819 44.6133 50.246C44.9063 50.41 47.2695 50.5311 50.2344 50.5468C53.3398 50.5663 55.9805 50.4725 55.9805 50.4725C55.9805 50.4725 56.3047 50.1132 56.3047 49.4647C56.3047 48.9413 56.1563 48.7069 55.9805 48.5858C55.8008 48.4647 52.3398 48.6249 50.0938 48.6093C47.5586 48.5897 44.8555 48.2811 44.5977 48.41Z" fill="#749B22"/>
<path d="M44.6328 57.168C44.6328 60.2969 46.6523 62.7383 50.3633 62.7031C54.0742 62.668 55.6484 59.2891 55.543 57.3281C55.4141 54.918 54.043 52.0859 50.1367 52.0859C46.2305 52.0859 44.6328 54.8906 44.6328 57.168Z" fill="#FF5119"/>
</svg>
