<svg width="400" height="400" viewBox="0 0 400 400" fill="none" xmlns="http://www.w3.org/2000/svg">
<path d="M131.291 283.658C150.1 254.593 133.341 237.322 122.61 232.32C61.8424 222.447 8.30877 171.11 35.0756 142.281C56.489 119.219 95.12 128.46 111.759 135.963C123.575 139.254 150.1 136.99 161.675 101.606C176.144 57.3763 253.912 49.0833 276.338 66.4592C298.765 83.8351 282.487 126.485 268.742 161.237C255.152 195.598 285.057 202.934 299.717 206.53L300.211 206.651C314.68 210.205 347.958 199.938 364.958 221.658C381.959 243.378 364.958 283.658 347.958 302.614C330.957 321.569 295.871 317.62 268.742 302.614C241.614 287.607 241.614 310.512 220.273 336.181C198.932 361.85 122.61 363.429 111.759 348.423C100.907 333.416 107.78 319.989 131.291 283.658Z" fill="#FFE484"/>
<path d="M136 317.029C136 321.464 138.538 317.029 142.957 317.029C147.375 317.029 152 321.464 152 317.029C152 312.595 148.418 309 144 309C139.582 309 136 312.595 136 317.029Z" fill="#FE7A15"/>
<path d="M264 317.029C264 321.464 261.462 317.029 257.043 317.029C252.625 317.029 248 321.464 248 317.029C248 312.595 251.582 309 256 309C260.418 309 264 312.595 264 317.029Z" fill="#FE7A15"/>
<circle cx="198" cy="92" r="45" stroke="#3A9A55" stroke-width="10"/>
<path d="M199.305 62C188.912 62 182.18 65.8324 176.895 72.6671C175.936 73.907 176.232 75.6069 177.569 76.5195L183.186 80.3526C184.537 81.2743 186.459 81.0588 187.516 79.8665C190.778 76.1891 193.197 74.0717 198.292 74.0717C202.297 74.0717 207.252 76.3919 207.252 79.8879C207.252 82.5307 204.828 83.8879 200.873 85.8836C196.26 88.211 190.157 91.1074 190.157 98.353V99.5C190.157 101.053 191.556 102.312 193.282 102.312H202.718C204.444 102.312 205.843 101.053 205.843 99.5V98.8235C205.843 93.8008 222.154 93.5916 222.154 80C222.154 69.7644 210.357 62 199.305 62ZM198 105.765C193.027 105.765 188.98 109.406 188.98 113.882C188.98 118.358 193.027 122 198 122C202.973 122 207.02 118.358 207.02 113.882C207.02 109.406 202.973 105.765 198 105.765Z" fill="#FF0000"/>
<path d="M98 142H120.222L124.667 164.222M124.667 164.222H298L253.556 253.111H142.444M124.667 164.222L142.444 253.111M142.444 253.111L116.967 278.589C109.967 285.589 114.922 297.556 124.822 297.556H253.556M253.556 297.556C247.662 297.556 242.01 299.897 237.842 304.064C233.675 308.232 231.333 313.884 231.333 319.778C231.333 325.671 233.675 331.324 237.842 335.491C242.01 339.659 247.662 342 253.556 342C259.449 342 265.102 339.659 269.269 335.491C273.437 331.324 275.778 325.671 275.778 319.778C275.778 313.884 273.437 308.232 269.269 304.064C265.102 299.897 259.449 297.556 253.556 297.556ZM164.667 319.778C164.667 325.671 162.325 331.324 158.158 335.491C153.99 339.659 148.338 342 142.444 342C136.551 342 130.898 339.659 126.731 335.491C122.563 331.324 120.222 325.671 120.222 319.778C120.222 313.884 122.563 308.232 126.731 304.064C130.898 299.897 136.551 297.556 142.444 297.556C148.338 297.556 153.99 299.897 158.158 304.064C162.325 308.232 164.667 313.884 164.667 319.778Z" stroke="#3A9A55" stroke-width="18" stroke-linecap="round" stroke-linejoin="round"/>
<path d="M82 142H107" stroke="#FE7A15" stroke-width="18" stroke-linecap="round"/>
<path d="M278.5 176H139.5L146 211L266.5 199L278.5 176Z" fill="#FF9341" stroke="#FE7A15"/>
</svg>
