<svg width="400" height="400" viewBox="0 0 400 400" fill="none" xmlns="http://www.w3.org/2000/svg">
<path d="M131.291 275.658C150.1 246.593 133.341 229.322 122.61 224.32C61.8424 214.447 8.30877 163.11 35.0756 134.281C56.489 111.219 95.12 120.46 111.759 127.963C123.575 131.254 150.1 128.99 161.675 93.6059C176.144 49.3763 253.912 41.0833 276.338 58.4592C298.765 75.8351 282.487 118.485 268.742 153.237C255.152 187.598 285.057 194.934 299.717 198.53L300.211 198.651C314.68 202.205 347.958 191.938 364.958 213.658C381.959 235.378 364.958 275.658 347.958 294.614C330.957 313.569 295.871 309.62 268.742 294.614C241.614 279.607 241.614 302.512 220.273 328.181C198.932 353.85 122.61 355.429 111.759 340.423C100.907 325.416 107.78 311.989 131.291 275.658Z" fill="#FFE484"/>
<rect x="105" y="181" width="95" height="40" fill="#49A85A"/>
<rect x="205" y="207" width="95" height="40" fill="#FF9341"/>
<rect x="102" y="260" width="198" height="2" fill="#D9D9D9"/>
<rect x="102" y="267" width="198" height="2" fill="#D9D9D9"/>
<rect x="102" y="274" width="198" height="2" fill="#D9D9D9"/>
<rect x="85.5" y="171.5" width="229" height="129" rx="4.5" stroke="#49A85A"/>
<path d="M202.972 70C192.579 70 185.847 73.8324 180.562 80.6671C179.603 81.907 179.899 83.6069 181.236 84.5195L186.853 88.3526C188.204 89.2743 190.126 89.0588 191.183 87.8665C194.445 84.1891 196.864 82.0717 201.959 82.0717C205.964 82.0717 210.919 84.3919 210.919 87.8879C210.919 90.5307 208.495 91.8879 204.54 93.8836C199.927 96.211 193.824 99.1074 193.824 106.353V107.5C193.824 109.053 195.223 110.312 196.949 110.312H206.385C208.111 110.312 209.51 109.053 209.51 107.5V106.823C209.51 101.801 225.821 101.592 225.821 88C225.821 77.7644 214.024 70 202.972 70ZM201.667 113.765C196.694 113.765 192.647 117.406 192.647 121.882C192.647 126.358 196.694 130 201.667 130C206.64 130 210.687 126.358 210.687 121.882C210.687 117.406 206.64 113.765 201.667 113.765Z" fill="#FF0000"/>
<circle cx="203" cy="100" r="45" stroke="#3A9A55" stroke-width="10"/>
</svg>
