<svg width="100" height="100" viewBox="0 0 100 100" fill="none" xmlns="http://www.w3.org/2000/svg">
<rect width="100" height="100" rx="50" fill="white"/>
<path d="M65.9444 34.6896C65.9444 34.6896 65.9576 34.8724 65.9616 35.2058L65.9632 35.338C65.9635 35.3848 65.9657 35.4313 65.9608 35.4906C65.9506 35.6142 65.9404 35.7378 65.9301 35.8615C65.9178 35.9944 65.9063 36.144 65.8891 36.2935C65.8714 36.4403 65.8545 36.5981 65.8313 36.763C65.7224 37.5606 65.5567 38.3494 65.3354 39.1234C65.0806 40.0226 64.7222 41.023 64.2285 42.0767C63.7366 43.1311 63.1022 44.2325 62.3237 45.3341C62.2293 45.4747 62.1256 45.6082 62.0235 45.7454L61.8689 45.9512L61.7909 46.0547L61.7714 46.0807C61.8328 46.0242 61.6766 46.1724 61.6898 46.161L61.6817 46.1718L61.6492 46.2151C61.4768 46.4471 61.2949 46.6741 61.1151 46.9079L61.0981 46.9297L61.0742 46.9567L61.026 47.0108L60.9291 47.1192L60.7315 47.3343L60.3288 47.7667L60.2271 47.8749L60.1315 47.9729C60.0676 48.0386 60.003 48.1036 59.9376 48.1678L59.5432 48.5575C58.4761 49.5912 57.2642 50.5539 55.9479 51.4087C54.6132 52.273 53.1987 53.0072 51.7238 53.6013C50.2479 54.1976 48.719 54.6531 47.1574 54.9619C45.6137 55.2652 44.0682 55.417 42.5762 55.4247C41.0839 55.4329 39.6465 55.3001 38.3108 55.062C37.6424 54.9485 37.0004 54.7936 36.3866 54.6343C35.7744 54.46 35.1894 54.2845 34.6399 54.0757L34.2323 53.9269C34.0983 53.8775 33.9682 53.8183 33.8389 53.7654C33.5805 53.658 33.3301 53.5498 33.0881 53.4415C32.847 53.3296 32.6151 53.2132 32.3912 53.1001L32.0611 52.933C31.953 52.8782 31.8494 52.8153 31.7464 52.7582C31.3359 52.5241 30.9561 52.3069 30.6187 52.0766C30.2799 51.8504 29.9715 51.6463 29.7052 51.4374L29.3282 51.1449L29.0024 50.8796C28.8037 50.7095 28.6398 50.5574 28.5076 50.4346C28.2435 50.1891 28.11 50.0489 28.11 50.0489C26.8675 48.7433 26.9187 46.6778 28.2242 45.4353C28.7476 44.9356 29.4228 44.625 30.1428 44.5526L30.5342 44.513C30.5342 44.513 30.6982 44.4964 30.992 44.4826C31.1388 44.4757 31.319 44.4665 31.5246 44.4643L31.8601 44.4447L32.2329 44.4304C32.4916 44.428 32.7818 44.4027 33.0873 44.3928C33.3918 44.3866 33.7235 44.3555 34.0668 44.3417C34.4107 44.3265 34.7765 44.2884 35.1506 44.2709C35.5298 44.23 35.9176 44.2126 36.3213 44.1654L36.6251 44.1352L36.778 44.1227L36.9328 44.1036L37.2449 44.0654L37.5595 44.0334C37.7713 44.0025 37.985 43.9724 38.2 43.9481L38.3617 43.9282L38.5246 43.9012L38.852 43.8535C39.7284 43.7206 40.6315 43.5597 41.547 43.3632C43.3782 42.9728 45.2597 42.4414 47.095 41.7606C48.0115 41.4196 48.9156 41.0462 49.8056 40.641C50.6934 40.2391 51.5578 39.8042 52.3999 39.3571L52.7115 39.1849C52.7633 39.1561 52.8154 39.1279 52.8685 39.1007L52.9476 39.0596L53.0151 39.0231L53.285 38.879L53.421 38.808L53.4903 38.7739L53.525 38.7569L53.5425 38.7483L53.5656 38.7332C53.813 38.5725 54.0536 38.4092 54.2987 38.2558L54.3444 38.2269L54.3559 38.2197C54.3757 38.2022 54.2258 38.3444 54.2936 38.2816L54.3119 38.2703L54.3854 38.2251L54.532 38.1353L54.8238 37.956C55.5951 37.4751 56.3354 36.9917 57.0208 36.5128C57.6629 36.0653 58.2963 35.6055 58.9208 35.1337C59.4977 34.701 60.0064 34.2989 60.4369 33.9602C60.5427 33.8746 60.6479 33.7951 60.7449 33.7185C60.8406 33.6439 60.9289 33.5801 61.0127 33.5164L61.2462 33.3405C61.2826 33.3165 61.3204 33.282 61.3557 33.2521L61.4561 33.1661C61.7093 32.9492 61.8554 32.8384 61.8554 32.8384C62.9793 31.9866 64.581 32.2072 65.4328 33.3311C65.7323 33.7243 65.9102 34.1965 65.9444 34.6896Z" fill="#FFAE2C"/>
<path d="M29.2514 47.4421C28.8516 48.3549 28.4976 48.4757 27.5585 48.0645C26.6193 47.6533 26.4681 47.3112 26.8678 46.3983C27.2675 45.4854 29.6512 46.5292 29.2514 47.4421Z" fill="#B28E7F"/>
<path d="M68.009 35.8625C68.009 35.8625 68.0527 36.0646 68.1102 36.4366L68.133 36.5841C68.1408 36.6364 68.1507 36.6879 68.1547 36.7549L68.1793 37.1743C68.1866 37.3248 68.1976 37.4937 68.2021 37.6635C68.2057 37.8303 68.2119 38.0093 68.2122 38.1974C68.2174 39.106 68.1576 40.0137 68.0333 40.9137C67.8915 41.959 67.6501 43.1338 67.266 44.3897C66.884 45.646 66.3501 46.9777 65.6555 48.3324C65.5723 48.5044 65.4776 48.6701 65.3853 48.8396L65.2453 49.0943L65.1747 49.2223L65.1569 49.2544C65.2166 49.1815 65.0655 49.372 65.0785 49.3571L65.0712 49.3705L65.0418 49.424C64.886 49.7107 64.7188 49.9932 64.5551 50.2831L64.5396 50.3101L64.5172 50.344L64.4719 50.4121L64.3808 50.5486L64.1942 50.8204L63.8131 51.3675L63.7166 51.5046L63.6253 51.6293C63.5646 51.7127 63.5025 51.7954 63.4397 51.8778L63.0609 52.3758C62.0329 53.7005 60.8317 54.9689 59.4968 56.1335C58.1428 57.3113 56.679 58.3566 55.1254 59.2549C53.571 60.1558 51.935 60.9079 50.2391 61.5012C48.5624 62.0855 46.8596 62.5009 45.1935 62.7466C43.5273 62.9931 41.9001 63.0732 40.3697 63.0194C39.6048 62.9988 38.8628 62.9279 38.1515 62.8474C37.4398 62.75 36.7581 62.6468 36.111 62.5009L35.6319 62.3995C35.4744 62.3656 35.3195 62.3202 35.1666 62.2815C34.8687 62.2047 34.5719 62.1238 34.2762 62.0389C33.989 61.9523 33.7114 61.8591 33.4432 61.7683L33.0477 61.6339C32.9182 61.5899 32.7925 61.5361 32.6682 61.4888C32.4288 61.3954 32.1904 61.2991 31.9533 61.1999C31.7239 61.1099 31.5074 61.0039 31.2998 60.9064C30.8852 60.7076 30.5082 60.5285 30.1774 60.3374C29.8831 60.1725 29.5915 60.0027 29.3029 59.828C29.0929 59.6911 28.8852 59.5508 28.6798 59.4072C28.3456 59.1748 28.1741 59.0393 28.1741 59.0393C26.5782 57.778 26.307 55.4618 27.5683 53.8659C28.0737 53.2244 28.7788 52.7699 29.5718 52.5746L30.0028 52.4681C30.0028 52.4681 30.1835 52.4234 30.5096 52.3613C30.6724 52.3304 30.8723 52.2917 31.1023 52.254C31.3345 52.207 31.598 52.1566 31.8879 52.1057C32.1765 52.0619 32.4969 51.9875 32.8366 51.9279C33.1759 51.8725 33.5416 51.7851 33.923 51.7151C34.3049 51.6434 34.7076 51.5427 35.1228 51.4637C35.334 51.4114 35.5459 51.3622 35.7586 51.3163C35.9737 51.2711 36.1926 51.2135 36.4142 51.1596L36.7489 51.0776L36.9178 51.0393L37.0877 50.9933L37.4303 50.901L37.7766 50.8154L38.126 50.7136C38.3027 50.6657 38.4795 50.6178 38.6563 50.5701L38.8341 50.5141C38.9528 50.4772 39.0724 50.4439 39.1923 50.4086C40.1505 50.121 41.134 49.7975 42.1257 49.4324C44.1099 48.705 46.1277 47.8121 48.0703 46.7595C49.0402 46.2329 49.9911 45.6718 50.9211 45.0775C51.8492 44.4874 52.7461 43.864 53.6159 43.2304L53.9368 42.9884C53.9901 42.9478 54.0441 42.9081 54.0987 42.8694L54.1806 42.8109L54.2503 42.7593L54.5289 42.5553L54.6696 42.4544L54.7417 42.4052L54.7778 42.3807L54.796 42.3683L54.8194 42.3477C55.0703 42.1289 55.3133 41.9082 55.5627 41.6977L55.6092 41.6581L55.6208 41.6482C55.6402 41.6255 55.4953 41.8082 55.5609 41.7273L55.5797 41.7118L55.6546 41.6498L55.8042 41.526L56.1017 41.2794C56.8871 40.6194 57.6375 39.9617 58.3272 39.3175C58.9735 38.7153 59.6082 38.1009 60.231 37.4746C60.8068 36.8993 61.3113 36.3692 61.7386 35.9222C61.8431 35.8097 61.9479 35.7042 62.0443 35.6032C62.1394 35.5045 62.2279 35.4194 62.3114 35.3347L62.5443 35.101C62.5811 35.0685 62.618 35.0239 62.6525 34.9848L62.7511 34.8727C62.9996 34.5901 63.1452 34.4431 63.1452 34.4431C64.2656 33.3126 66.0904 33.3044 67.221 34.4249C67.6181 34.817 67.892 35.3167 68.009 35.8625Z" fill="#FFB93E"/>
<path d="M29.0353 55.9454C28.7337 57.029 25.9043 56.2416 26.2059 55.158C26.5074 54.0745 26.8838 53.8831 27.9986 54.1934C29.1135 54.5037 29.3368 54.8618 29.0353 55.9454Z" fill="#A07562"/>
<path d="M66.3922 26.9043C66.2792 26.8733 66.161 26.8658 66.045 26.8821C65.9245 26.7788 65.7895 26.6938 65.6442 26.6299C65.0606 26.3744 64.4263 26.9386 64.1034 27.2923C63.121 28.3684 65.3318 29.7799 63.7608 32.3791C63.5395 32.7454 63.7282 33.6886 64.0661 33.8366C64.4473 34.0035 64.8964 33.8819 65.2302 33.5582C65.2206 33.5815 65.2116 33.6044 65.2017 33.6279C65.0125 34.0723 65.3734 35.0962 65.7745 35.2079C66.3701 35.3736 67.0187 34.9629 67.282 34.2602C68.0225 32.2839 68.8135 27.5782 66.3922 26.9043Z" fill="#8E6049"/>
<path d="M71.5168 34.426C71.5168 34.426 71.6174 34.5997 71.7834 34.9274L71.8492 35.0573C71.8723 35.1036 71.8968 35.1475 71.9217 35.2118L72.0762 35.6091C72.1303 35.7519 72.1935 35.9119 72.251 36.0733C72.3064 36.2315 72.368 36.4002 72.4274 36.5797C72.7175 37.4458 72.9485 38.3306 73.1189 39.228C73.3193 40.27 73.4705 41.467 73.5177 42.7871C73.5669 44.1071 73.5014 45.5479 73.2967 47.0638C73.2752 47.2544 73.2414 47.4433 73.2108 47.6348L73.1637 47.9229L73.1397 48.0678L73.1337 48.1041C73.1642 48.0098 73.0888 48.2533 73.0957 48.2334L73.0932 48.2484L73.0831 48.3082C73.0308 48.6283 72.9673 48.9489 72.909 49.2749L72.9034 49.3055L72.8936 49.3453L72.8739 49.4253L72.8341 49.5858C72.8061 49.6929 72.778 49.8 72.75 49.9072L72.576 50.5555L72.5314 50.7181L72.4874 50.8667C72.4581 50.9663 72.4278 51.0656 72.3965 51.1645L72.2083 51.7634C71.6842 53.3611 70.9914 54.9684 70.1385 56.5239C69.2727 58.0969 68.262 59.5855 67.1194 60.9705C65.9739 62.3646 64.6945 63.6471 63.3352 64.7844C61.9762 65.9222 60.5369 66.9148 59.0728 67.7377C57.6091 68.5617 56.1249 69.2201 54.6842 69.7227C53.9663 69.9797 53.2519 70.1824 52.5631 70.3664C51.8675 70.5344 51.1981 70.6874 50.5455 70.789L50.0646 70.8702C49.9063 70.8966 49.7465 70.9114 49.5907 70.9318C49.2786 70.9707 48.9741 71.005 48.6777 71.0345C48.3802 71.0599 48.0892 71.0761 47.8079 71.0913L47.3929 71.1133C47.2569 71.1206 47.1209 71.1175 46.9887 71.1198C46.4581 71.1221 45.9667 71.1247 45.5095 71.0912C45.0532 71.0624 44.6388 71.0389 44.2628 70.987L43.7322 70.9173L43.2668 70.8461C42.9781 70.7944 42.7336 70.7411 42.5363 70.6982C42.1418 70.6121 41.9335 70.5543 41.9335 70.5543C39.9939 70.0163 38.8578 68.0078 39.3958 66.0684C39.6292 65.2223 40.1612 64.4893 40.8934 64.0052L41.2531 63.7675C41.2531 63.7675 41.4059 63.6665 41.6884 63.4995C41.8296 63.4161 42.0025 63.313 42.2047 63.2026L42.5256 63.0069L42.8866 62.7958C43.1413 62.6565 43.4146 62.4774 43.7118 62.3047C44.01 62.1362 44.3216 61.928 44.6544 61.7297C44.9869 61.5298 45.3286 61.2949 45.69 61.0747C46.0435 60.8288 46.4185 60.6006 46.7927 60.333L47.0772 60.1371L47.2219 60.0408L47.3646 59.9369L47.6528 59.7279L47.9468 59.5229L48.2377 59.3019L48.5339 59.0846L48.683 58.9753L48.8294 58.8585L49.1267 58.6294C49.9201 58.0111 50.7223 57.346 51.5135 56.6357C52.3046 55.9254 53.0882 55.1742 53.8443 54.3816C54.6009 53.5894 55.3292 52.7561 56.0244 51.8976C57.4109 50.1769 58.6541 48.3463 59.7211 46.5142L59.9164 46.1697C59.9487 46.1123 59.9816 46.0552 60.016 45.9989L60.0669 45.914L60.1088 45.8405L60.2769 45.5494L60.3627 45.4047L60.4074 45.3329L60.4299 45.2971L60.4411 45.279L60.4544 45.251C60.5977 44.9525 60.734 44.6554 60.8788 44.3652L60.9057 44.3107L60.9124 44.2971C60.9225 44.2677 60.85 44.5017 60.8831 44.3977L60.8937 44.3764L60.9364 44.2913L61.0219 44.1217L61.1914 43.7842C61.6349 42.8857 62.0441 42.0068 62.4024 41.1668C62.7373 40.3844 63.0565 39.5954 63.3601 38.8003C63.6411 38.0719 63.8754 37.4132 64.0742 36.8589C64.1217 36.7204 64.1719 36.5882 64.2167 36.4633C64.2611 36.3415 64.3044 36.2366 64.344 36.1327L64.4557 35.8459C64.475 35.8056 64.4897 35.75 64.5046 35.7015L64.5468 35.562C64.6532 35.2105 64.7221 35.0219 64.7221 35.0219C65.4355 33.0686 67.5975 32.0636 69.5507 32.7771C70.4114 33.0912 71.0902 33.6909 71.5168 34.426Z" fill="#FFCE6C"/>
<path d="M70.8486 43.9109C70.8486 43.9109 70.9093 44.1924 70.9706 44.6794C70.9786 44.7404 70.9873 44.8045 70.9941 44.8716L71.0055 44.9746L71.0108 45.0897C71.0189 45.2469 71.0199 45.4169 71.0245 45.6005C71.0267 45.7828 71.0274 45.9817 71.0224 46.1849L70.9808 46.8137C70.9528 47.2547 70.8766 47.7231 70.791 48.2215C70.7721 48.347 70.7423 48.4706 70.7134 48.5964L70.6224 48.9779C70.5588 49.2348 70.497 49.4995 70.4089 49.7591C70.3251 50.0254 70.238 50.2905 70.1475 50.5546C70.0475 50.8186 69.9385 51.0827 69.8293 51.3497C69.7718 51.4818 69.7212 51.6182 69.6566 51.7478L69.4664 52.1398L69.2715 52.5316C69.2081 52.6634 69.1365 52.7904 69.0631 52.9166C68.9189 53.1699 68.7724 53.4219 68.6235 53.6724C68.4671 53.9149 68.3074 54.1553 68.1445 54.3936C67.988 54.6337 67.814 54.8585 67.6428 55.0804C67.4692 55.3006 67.3049 55.5232 67.1249 55.7273C66.766 56.1363 66.4186 56.5292 66.0557 56.87L65.791 57.1246C65.7034 57.2073 65.6194 57.2907 65.5295 57.366C65.3503 57.517 65.1821 57.6662 65.0129 57.8017C64.6837 58.0812 64.3577 58.3101 64.0692 58.5105C63.924 58.6097 63.7903 58.7039 63.6622 58.7858C63.5429 58.8589 63.4226 58.9302 63.3013 58.9998C63.1319 59.0985 62.9602 59.1932 62.7863 59.2836C62.6656 59.3461 62.5998 59.3773 62.5998 59.3773C62.4491 59.4486 62.2797 59.4705 62.1158 59.4399C61.9518 59.4093 61.8018 59.3277 61.687 59.2067C61.5722 59.0858 61.4986 58.9316 61.4766 58.7663C61.4546 58.6011 61.4853 58.433 61.5644 58.2863L61.5781 58.2613L61.6742 58.0856C61.7382 57.9727 61.8324 57.8084 61.9579 57.6079C62.0194 57.5064 62.0901 57.3972 62.1668 57.2787C62.2385 57.1554 62.3196 57.0264 62.4048 56.8878C62.5758 56.6114 62.7782 56.3119 62.9814 55.974C63.0832 55.8052 63.1974 55.6376 63.3104 55.4606C63.4208 55.2814 63.5319 55.095 63.6505 54.9078C63.8931 54.5373 64.1245 54.1329 64.3793 53.7291C64.4452 53.6296 64.5042 53.5245 64.5645 53.4195L64.7504 53.105L64.9416 52.7897C65.0065 52.6846 65.0634 52.5742 65.1261 52.4669C65.2472 52.2496 65.3761 52.0352 65.5014 51.8178C65.6197 51.5963 65.7405 51.376 65.8638 51.1571C65.9915 50.9402 66.0984 50.7135 66.2174 50.4935C66.3338 50.2724 66.4573 50.0554 66.5619 49.8322C66.6716 49.6133 66.7832 49.3953 66.8968 49.1783C66.9974 48.9615 67.1011 48.7461 67.2078 48.5321C67.3174 48.3219 67.408 48.1093 67.5046 47.9029L67.6493 47.5966C67.6989 47.498 67.7453 47.3977 67.7883 47.296C67.8728 47.1011 67.9596 46.9073 68.0488 46.7145C68.1429 46.5281 68.2129 46.3425 68.2889 46.1654L68.515 45.6559C68.5871 45.496 68.6429 45.3465 68.7066 45.2036C68.7704 45.0615 68.8267 44.9267 68.8859 44.8021L68.9287 44.71L68.9655 44.6131C68.989 44.5499 69.0136 44.49 69.0366 44.433C69.2183 43.977 69.3477 43.7196 69.3477 43.7196C69.4433 43.5296 69.6105 43.3853 69.8124 43.3184C70.0144 43.2516 70.2346 43.2677 70.4247 43.3633C70.6491 43.4758 70.7983 43.6835 70.8486 43.9109Z" fill="#FFDF95"/>
<path d="M41.6129 67.3587C41.7251 68.4779 41.4437 68.7927 40.2924 68.9081C39.141 69.0236 38.8028 68.7709 38.6906 67.6517C38.5784 66.5324 38.8598 66.2177 40.0111 66.1023C41.1625 65.9868 41.5007 66.2395 41.6129 67.3587Z" fill="#8E6049"/>
<path d="M68.3233 34.7034C68.9384 34.6418 69.3938 34.0238 69.3841 33.2733C69.357 31.1631 70.9801 27.8862 68.7425 26.7417C66.0936 25.3867 64.011 27.2482 63.8893 27.7747C63.5188 29.377 66.3452 29.6355 67.2367 34.1176C67.3311 34.5912 67.909 34.7449 68.3233 34.7034Z" fill="#966C5A"/>
<path d="M68.0088 29.9254C67.297 31.0798 68.0096 34.7349 68.3232 34.7034C68.9384 34.6417 70.577 25.7605 68.0088 29.9254Z" fill="#18937E"/>
</svg>
