<svg width="100" height="100" viewBox="0 0 100 100" fill="none" xmlns="http://www.w3.org/2000/svg">
<rect width="100" height="100" rx="50" fill="white"/>
<path d="M68.4578 51.2109C67.0515 52.6328 66.1765 54.5078 66.0047 56.4922C65.6609 60.4609 63.9265 64.1953 61.114 67.0078C54.614 73.4922 44.0515 73.4922 37.5672 67.0078L32.6453 62.0859L35.1453 59.6016C34.5359 54.6797 36.114 49.5234 39.8797 45.7578C42.6922 42.9453 46.4265 41.2109 50.3953 40.8672C50.518 40.8564 50.6404 40.8428 50.7625 40.8266C50.4683 39.8683 50.4411 38.848 50.684 37.8755C50.9268 36.903 51.4305 36.0152 52.1406 35.3078C53.1326 34.3184 54.4624 33.741 55.8626 33.6917C57.2629 33.6425 58.6299 34.1249 59.689 35.0422L63.8172 30.9141L68.739 35.8359C72.8953 39.9922 72.8953 46.7734 68.739 50.9297L68.4578 51.2109Z" fill="#FFAA9A"/>
<path fill-rule="evenodd" clip-rule="evenodd" d="M63.8625 46.6172C62.4562 48.0391 61.5812 49.9141 61.4094 51.8984C61.0686 55.8717 59.3432 59.599 56.5344 62.4297C50.0344 68.9141 39.4719 68.9297 32.9875 62.4297C26.5031 55.9297 26.5031 45.3672 32.9875 38.8828C35.8 36.0703 39.5344 34.3359 43.4875 33.9766C45.4808 33.8023 47.3497 32.9341 48.7687 31.5234L49.05 31.2422C53.2062 27.0859 59.9875 27.0859 64.1437 31.2422C68.3 35.3984 68.3 42.1797 64.1437 46.3359L63.8625 46.6172ZM54.1594 37.3203C53.1125 38.3672 53.1125 40.0547 54.1594 41.1016C55.2062 42.1484 56.9094 42.1484 57.9562 41.1172C59.0031 40.0703 59.0031 38.3672 57.9562 37.3203C57.4524 36.8175 56.7696 36.5351 56.0578 36.5351C55.346 36.5351 54.6632 36.8175 54.1594 37.3203Z" fill="#F4F4F4"/>
<path d="M36.9937 38.7406C35.9687 39.5531 36.1234 41.2062 37.3469 41.7734L45.0344 45.414C45.0437 45.414 45.05 45.4187 45.0594 45.4218C45.0672 45.425 45.075 45.4297 45.0812 45.4297C46.5969 46.1328 48.3781 45.8672 49.5656 44.6797L50.7219 43.5234C51.4562 42.789 51.7375 41.7109 51.4406 40.7265C51.1854 39.8795 51.164 38.9793 51.3785 38.1212C51.593 37.263 52.0356 36.4788 52.6594 35.8515C53.1301 35.3785 53.6931 35.0075 54.3135 34.7616C54.9338 34.5157 55.5981 34.4001 56.265 34.4221C56.932 34.4441 57.5872 34.6032 58.19 34.8894C58.7928 35.1756 59.3302 35.5829 59.7687 36.0859C61.3781 37.8984 61.3781 40.6797 59.7687 42.5078C58.4406 44.0078 56.4406 44.4922 54.6906 43.9609C54.2023 43.8099 53.682 43.7957 53.1862 43.9196C52.6903 44.0436 52.2379 44.301 51.8781 44.664L50.7375 45.8047C49.55 46.9922 49.2844 48.789 50.0031 50.3047C50.0031 50.3125 50.0078 50.3172 50.0125 50.3203C50.0156 50.325 50.0203 50.3281 50.0203 50.3359L53.6766 58.0078C53.8045 58.2784 53.9981 58.5127 54.2397 58.6893C54.4813 58.866 54.7633 58.9794 55.06 59.0191C55.3567 59.0589 55.6586 59.0238 55.9382 58.917C56.2178 58.8102 56.4663 58.6352 56.6609 58.4078C57.9804 56.3974 58.7804 54.0909 58.9891 51.6953C59.2078 49.1328 60.3328 46.7265 62.1453 44.8984L62.4266 44.6172C63.2068 43.8389 63.8224 42.9116 64.2369 41.8905C64.6513 40.8693 64.8561 39.7753 64.8391 38.6734C64.8231 37.5028 64.5567 36.3491 64.0579 35.2899C63.559 34.2308 62.8392 33.2907 61.9469 32.5328C58.6906 29.764 53.7781 30.0047 50.7125 33.0484L50.5047 33.2578C48.6826 35.0791 46.2749 36.1971 43.7078 36.414C41.3117 36.622 39.0047 37.4214 36.9937 38.7406Z" fill="url(#paint0_linear_12_73)"/>
<path d="M32.7312 43.0719C33.2281 42.3376 34.1828 42.0797 34.9875 42.4454L44.3781 46.8516C46.2062 47.711 47.6906 49.1954 48.5656 51.0079L53.0187 60.3516C53.4094 61.1797 53.1125 62.1641 52.3469 62.6485C50.9033 63.5668 49.305 64.2153 47.6297 64.5626C45.324 65.0399 42.9359 64.9364 40.6802 64.2613C38.4245 63.5863 36.3721 62.3608 34.7078 60.6954C29.9234 55.9126 29.2656 48.561 32.7312 43.0704V43.0719Z" fill="url(#paint1_linear_12_73)"/>
<defs>
<linearGradient id="paint0_linear_12_73" x1="50.5782" y1="30.6017" x2="57" y2="56" gradientUnits="userSpaceOnUse">
<stop offset="0.208333" stop-color="#FF7574"/>
<stop offset="1" stop-color="#FF0806"/>
</linearGradient>
<linearGradient id="paint1_linear_12_73" x1="41.8687" y1="42.2806" x2="41.8687" y2="64.8574" gradientUnits="userSpaceOnUse">
<stop offset="0.442708" stop-color="#FF7574"/>
<stop offset="1" stop-color="#FF0300"/>
</linearGradient>
</defs>
</svg>
