<svg width="100" height="100" viewBox="0 0 100 100" fill="none" xmlns="http://www.w3.org/2000/svg">
<rect width="100" height="100" rx="50" fill="white"/>
<path d="M74.7891 53.9688C74.586 53.2578 74.2071 52.6758 73.8633 52.1406C73.6446 51.8086 73.4024 51.4258 73.2657 51.0547C73.1172 50.6328 72.918 50.2617 72.7266 49.9063C72.5469 49.5742 72.3789 49.2656 72.2969 48.9766C72.1446 48.4649 72.2344 47.8281 72.336 47.1563C72.3672 46.957 72.3946 46.7617 72.418 46.5664C72.5157 45.7774 72.6602 44.9961 72.8516 44.2422C72.8789 44.1485 72.9219 44.0039 72.9766 43.8242C73.6016 41.793 73.793 40.7695 73.2696 40.0664C73.0274 39.7344 72.6446 39.5469 72.2305 39.5469C71.6367 39.5469 71.125 39.9414 70.7422 40.2852C70.4024 40.5899 70.1446 40.9414 69.918 41.2539L69.7383 41.5039C69.3711 41.9922 69 42.4727 68.625 42.9531C68.1289 43.5977 67.6289 44.2461 67.1367 44.9063C67.0196 45.0586 66.9024 45.2422 66.7696 45.4375C66.5742 45.7422 66.1094 46.4531 65.8594 46.5117C65.711 46.5117 65.4219 46.3711 65.1875 46.2578L65.0117 46.1758C63.6641 45.5352 62.2071 44.8555 60.6914 44.2266C60.336 43.4961 59.7891 42.8399 59.3985 42.1367C58.8946 41.2227 58.4024 39.5117 57.0821 39.8086C56.1211 40.0274 55.1446 41.211 54.4492 41.8555C54.3555 41.9414 54.2696 42.0195 54.1953 42.0938C51.3125 41.3086 48.4336 40.6953 45.4727 40.5352C45.2461 39.8281 45.2774 39 45.3477 38.2422C45.4297 37.3594 45.6485 36.1914 44.3516 36.582C43.5039 36.836 42.7539 37.5781 42.0586 38.1055C40.9727 38.9336 40.0664 39.9141 39.1953 40.961C38.2813 41.1406 37.3867 41.3633 36.5274 41.6485C33.4883 42.6563 30.8321 44.3008 28.6289 46.543C27.9844 47.2031 27.3828 47.9102 26.8399 48.6367C26.5547 49.0156 26.2774 49.4102 26.0157 49.8281L25.8477 50.082C25.625 50.418 25.375 50.7969 25.2071 51.293C24.8711 52.2852 25.4883 52.9492 25.7813 53.2695L25.9532 53.4258C25.9571 53.5156 25.9532 53.582 25.9492 53.6406C25.9336 54 25.9414 54.3672 26.3008 54.9219C27.4141 56.6289 29.3633 57.6875 30.7891 58.461L31.0782 58.6211C32.6563 59.4844 34.3516 60.1406 36.2539 60.6406C37.293 60.9102 38.3321 61.1328 39.3633 61.3125C39.6719 61.5547 39.9727 61.7578 40.0469 61.8047C41.2344 62.6016 42.7539 63.4688 44.2305 63.4688C45.3711 63.4688 44.4727 62.3242 44.1563 61.9063C44.1289 61.8711 44.1055 61.832 44.0742 61.793C44.4492 61.8047 44.836 61.836 45.1992 61.836C46.0899 61.836 46.9688 61.7969 47.8203 61.7227C50.2578 61.5078 52.793 60.8867 55.3555 59.8789C55.4219 59.8516 55.4844 59.8242 55.5469 59.7969C55.6485 59.8125 55.75 59.8281 55.8164 59.8399C56.6875 59.9961 57.5821 60.3516 58.4766 60.2891C59.7188 60.1992 59.7422 59.5781 60.1602 58.5899C60.3594 58.1367 60.4805 57.668 60.668 57.2149C60.6914 57.1602 60.7188 57.0938 60.7461 57.0352C61.8867 56.2813 63.0352 55.4297 64.2032 54.4649C64.5977 54.1445 65.0235 53.8594 65.4766 53.5586C65.9336 53.25 66.4102 52.9336 66.9453 52.543C67.3828 52.543 68.1992 53.1406 68.5899 53.4258L69.0313 53.7461C69.8086 54.3125 70.6133 54.8985 71.5196 55.3633C71.9297 55.5742 72.711 55.9297 73.3711 55.9297C74.043 55.9297 74.4024 55.582 74.5586 55.3789C74.7891 55.125 74.9844 54.6641 74.7891 53.9688Z" fill="#006CA2"/>
<path d="M64.3242 51.7891C63.8437 52.1055 63.3555 52.4336 62.8789 52.8242C60.0312 55.1641 57.3242 56.8281 54.6016 57.8984C52.2305 58.832 49.8945 59.4062 47.6562 59.6016C46.1992 59.7344 44.6602 59.7422 43.0781 59.6328C41.2695 59.5039 39.4141 59.207 37.5469 58.7617C37.7852 58.2344 37.9805 57.6836 38.1289 57.125C38.3086 56.457 38.3711 55.5859 38.3086 54.8281C38.5859 54.9219 38.8555 55.0078 39.1328 55.1094C40.0078 55.4336 40.8984 55.6445 41.7852 55.6523C42.4492 55.6523 42.9258 55.0273 43.4453 54.4336C44.0117 53.7812 44.6094 53.1406 44.7266 51.8047C44.7578 51.4883 44.8633 51.0469 44.7187 50.8164C44.5508 50.5391 44.168 50.5859 43.957 50.5273C43.6758 50.457 43.4023 50.4258 43.1289 50.3906C42.332 50.2891 41.5898 50.3477 40.8047 50.5195C39.9141 50.7109 39.0039 50.9727 38.1406 51.3984C38.0273 51.4531 37.918 51.5234 37.8047 51.5898C37.6328 50.8477 37.3516 50.125 37.0859 49.4141C36.8789 48.8594 36.7422 48.3008 36.2539 47.9102C35.9922 47.6992 35.3242 47.5078 35.1992 47.9648C35.1484 48.1563 35.2656 48.4336 35.4062 48.6953C35.5195 48.9062 35.6406 49.1055 35.6914 49.25C36.0508 50.2969 36.2187 51.3984 36.3828 52.4844C36.582 53.7773 36.6328 54.8672 36.543 56.1797C36.5 56.8008 36.3281 57.3984 36.1172 57.9219C36.0586 58.0625 35.9922 58.1992 35.918 58.332C34.543 57.9141 33.2891 57.4023 32.1172 56.7617L31.8242 56.6016C30.5508 55.9102 28.9648 55.0469 28.0977 53.7539C28.1055 53.6523 28.1094 53.5312 28.1016 53.3789C28.3789 52.9688 29.082 53.1211 29.4609 53.2539C29.9492 53.4258 30.4141 53.7539 30.9297 53.707C31.4258 53.6641 31.6094 53.1641 31.3398 52.7656C31.082 52.375 30.4531 52.1914 30.0508 51.9922C29.5898 51.7617 29.043 51.6602 28.5469 51.5195C28.2344 51.4297 27.9062 51.3945 27.5781 51.3867C27.6016 51.3516 27.6172 51.3203 27.6406 51.2852C27.707 51.1836 27.7773 51.082 27.8359 50.9805C28.0625 50.6172 28.3125 50.2695 28.5586 49.9336C29.0469 49.2813 29.582 48.6523 30.1641 48.0586C30.6289 47.5859 31.1211 47.1406 31.6289 46.7305C31.9648 46.4805 32.7891 46.0156 34.0234 46.2461C35.332 46.4922 36.1055 47.1211 38.4102 46.7578C40.7187 46.3945 40.9883 45.3125 43.2383 45.3125C45.4883 45.3125 46.2773 47.0703 49.0312 47.2031C51.4844 47.3164 51.707 45.8555 54.0625 46.207C56.418 46.5547 56.6406 48.8242 59.8164 48.8242C62.9922 48.8242 63.4414 47.6914 66.7617 50.1094C66.75 50.2187 66.7227 50.332 66.6914 50.4492C66.2695 50.5 65.8789 50.6562 65.5508 50.9219C65.1758 51.2187 64.7617 51.4961 64.3242 51.7891V51.7891Z" fill="#40C0E7"/>
<mask id="mask0_12_80" style="mask-type:luminance" maskUnits="userSpaceOnUse" x="27" y="45" width="40" height="15">
<path d="M64.3242 51.7891C63.8437 52.1055 63.3555 52.4336 62.8789 52.8242C60.0312 55.1641 57.3242 56.8281 54.6016 57.8984C52.2305 58.832 49.8945 59.4062 47.6562 59.6016C46.1992 59.7344 44.6602 59.7422 43.0781 59.6328C41.2695 59.5039 39.4141 59.207 37.5469 58.7617C37.7852 58.2344 37.9805 57.6836 38.1289 57.125C38.3086 56.457 38.3711 55.5859 38.3086 54.8281C38.5859 54.9219 38.8555 55.0078 39.1328 55.1094C40.0078 55.4336 40.8984 55.6445 41.7852 55.6523C42.4492 55.6523 42.9258 55.0273 43.4453 54.4336C44.0117 53.7812 44.6094 53.1406 44.7266 51.8047C44.7578 51.4883 44.8633 51.0469 44.7187 50.8164C44.5508 50.5391 44.168 50.5859 43.957 50.5273C43.6758 50.457 43.4023 50.4258 43.1289 50.3906C42.332 50.2891 41.5898 50.3477 40.8047 50.5195C39.9141 50.7109 39.0039 50.9727 38.1406 51.3984C38.0273 51.4531 37.918 51.5234 37.8047 51.5898C37.6328 50.8477 37.3516 50.125 37.0859 49.4141C36.8789 48.8594 36.7422 48.3008 36.2539 47.9102C35.9922 47.6992 35.3242 47.5078 35.1992 47.9648C35.1484 48.1563 35.2656 48.4336 35.4062 48.6953C35.5195 48.9062 35.6406 49.1055 35.6914 49.25C36.0508 50.2969 36.2187 51.3984 36.3828 52.4844C36.582 53.7773 36.6328 54.8672 36.543 56.1797C36.5 56.8008 36.3281 57.3984 36.1172 57.9219C36.0586 58.0625 35.9922 58.1992 35.918 58.332C34.543 57.9141 33.2891 57.4023 32.1172 56.7617L31.8242 56.6016C30.5508 55.9102 28.9648 55.0469 28.0977 53.7539C28.1055 53.6523 28.1094 53.5312 28.1016 53.3789C28.3789 52.9688 29.082 53.1211 29.4609 53.2539C29.9492 53.4258 30.4141 53.7539 30.9297 53.707C31.4258 53.6641 31.6094 53.1641 31.3398 52.7656C31.082 52.375 30.4531 52.1914 30.0508 51.9922C29.5898 51.7617 29.043 51.6602 28.5469 51.5195C28.2344 51.4297 27.9062 51.3945 27.5781 51.3867C27.6016 51.3516 27.6172 51.3203 27.6406 51.2852C27.707 51.1836 27.7773 51.082 27.8359 50.9805C28.0625 50.6172 28.3125 50.2695 28.5586 49.9336C29.0469 49.2813 29.582 48.6523 30.1641 48.0586C30.6289 47.5859 31.1211 47.1406 31.6289 46.7305C31.9648 46.4805 32.7891 46.0156 34.0234 46.2461C35.332 46.4922 36.1055 47.1211 38.4102 46.7578C40.7187 46.3945 40.9883 45.3125 43.2383 45.3125C45.4883 45.3125 46.2773 47.0703 49.0312 47.2031C51.4844 47.3164 51.707 45.8555 54.0625 46.207C56.418 46.5547 56.6406 48.8242 59.8164 48.8242C62.9922 48.8242 63.4414 47.6914 66.7617 50.1094C66.75 50.2187 66.7227 50.332 66.6914 50.4492C66.2695 50.5 65.8789 50.6562 65.5508 50.9219C65.1758 51.2187 64.7617 51.4961 64.3242 51.7891V51.7891Z" fill="white"/>
</mask>
<g mask="url(#mask0_12_80)">
<path d="M27.0781 52.168C27.0781 52.168 34.4492 54.5664 47.4688 54.293C58.4844 54.0625 68.6797 49.1641 68.6797 49.1641L68.3164 51.168L66.2305 51.7461C66.2305 51.7461 57.6875 60.4336 47.7578 60.6719C44.2148 60.7539 39.082 60.3594 35.9102 59.3633C30.1797 57.5508 27.3867 54.5742 27.3867 54.5742L27.0781 52.168Z" fill="white"/>
</g>
<path d="M31.7578 48.8125C31.0352 48.8516 30.4688 49.5469 30.5078 50.3555C30.5469 51.168 31.1641 51.7891 31.8867 51.75C32.6172 51.707 33.1836 51.0195 33.1445 50.207C33.1016 49.3984 32.4844 48.7695 31.7578 48.8125Z" fill="#2F2F2F"/>
</svg>
