<svg width="100" height="100" viewBox="0 0 100 100" fill="none" xmlns="http://www.w3.org/2000/svg">
<rect width="100" height="100" rx="50" fill="white"/>
<path d="M70.1594 38.0641L70.1437 38.0797C71.0645 39.1981 71.5362 40.6191 71.4668 42.0661C71.3975 43.5131 70.7922 44.8826 69.7687 45.9078C69.229 46.4501 68.5874 46.8804 67.8808 47.174C67.1743 47.4676 66.4167 47.6187 65.6516 47.6187C64.8864 47.6187 64.1289 47.4676 63.4223 47.174C62.7158 46.8804 62.0742 46.4501 61.5344 45.9078C60.5759 44.9535 59.9802 43.6948 59.85 42.3485L57.0312 45.1688L54.8203 42.9594L57.5484 40.2328C56.2826 40.0651 55.1077 39.484 54.2062 38.5797C53.664 38.0399 53.2337 37.3983 52.9401 36.6918C52.6465 35.9852 52.4954 35.2277 52.4954 34.4625C52.4954 33.6974 52.6465 32.9398 52.9401 32.2333C53.2337 31.5267 53.664 30.8851 54.2062 30.3453C55.2091 29.3427 56.5432 28.7403 57.9585 28.6511C59.3738 28.5619 60.773 28.9921 61.8937 29.861L61.925 29.8297C64.1906 27.5485 67.8781 27.5641 70.1594 29.8297C70.7016 30.3695 71.1319 31.0111 71.4255 31.7176C71.7191 32.4242 71.8703 33.1818 71.8703 33.9469C71.8703 34.712 71.7191 35.4696 71.4255 36.1762C71.1319 36.8827 70.7016 37.5243 70.1594 38.0641Z" fill="#00D26A"/>
<path d="M32.2531 71.7047L56.8625 63.7359C63.9094 61.4547 66.05 52.5328 60.8156 47.2984L52.6906 39.1734C47.4562 33.939 38.5344 36.0953 36.2531 43.1265L28.2844 67.7359C27.4875 70.1891 29.8 72.5016 32.2531 71.7047Z" fill="#FF822D"/>
<path d="M44.3328 55.3297C45.0984 54.5641 45.0984 53.3297 44.3328 52.5485L35.9266 44.1422L34.5672 48.3297L41.5516 55.3141C42.3172 56.0953 43.5672 56.0953 44.3328 55.3297ZM38.4266 62.4391C37.6609 63.2047 37.6609 64.4391 38.4266 65.2203L41.8172 68.611L46.0047 67.2516L41.1922 62.4391C41.0108 62.2572 40.7952 62.1129 40.5579 62.0144C40.3207 61.916 40.0663 61.8653 39.8094 61.8653C39.5525 61.8653 39.2981 61.916 39.0608 62.0144C38.8235 62.1129 38.608 62.2572 38.4266 62.4391ZM50.3953 54.6578C49.6297 53.8766 49.6297 52.6422 50.3953 51.8766C51.1609 51.111 52.3953 51.111 53.1766 51.8922L61.6609 60.3766C60.8797 61.4078 59.8797 62.2828 58.6922 62.9547L50.3953 54.6578Z" fill="#FF6723"/>
</svg>
